SubSource-HROTdd_VROTx_SLENx_SANGn.ufo
<glyph name="quotedbl" format="2">
  <advance width="496"/>
  <unicode hex="0022"/>
  <outline>
    <contour>
      <point x="-17" y="301" type="curve" smooth="yes"/>
      <point x="-17" y="363"/>
      <point x="-16" y="425"/>
      <point x="30" y="496" type="curve" smooth="yes"/>
      <point x="67" y="553"/>
      <point x="142" y="504"/>
      <point x="106" y="448" type="curve" smooth="yes"/>
      <point x="72" y="395"/>
      <point x="73" y="347"/>
      <point x="73" y="301" type="curve" smooth="yes"/>
      <point x="73" y="234"/>
      <point x="-17" y="234"/>
    </contour>
    <contour>
      <point x="215" y="285" type="curve" smooth="yes"/>
      <point x="173" y="331"/>
      <point x="174" y="410"/>
      <point x="230" y="496" type="curve" smooth="yes"/>
      <point x="267" y="553"/>
      <point x="342" y="504"/>
      <point x="306" y="448" type="curve" smooth="yes"/>
      <point x="284" y="414"/>
      <point x="265" y="363"/>
      <point x="281" y="345" type="curve" smooth="yes"/>
      <point x="327" y="295"/>
      <point x="260" y="235"/>
    </contour>
  </outline>
</glyph>
<glyph name="ampersand" format="2">
  <advance width="634"/>
  <unicode hex="0026"/>
  <outline>
    <contour>
      <point x="346" y="406" type="curve" smooth="yes"/>
      <point x="268" y="396"/>
      <point x="227" y="402"/>
      <point x="182" y="402" type="curve" smooth="yes"/>
      <point x="142" y="402"/>
      <point x="42" y="383"/>
      <point x="49" y="358" type="curve" smooth="yes"/>
      <point x="56" y="330"/>
      <point x="278" y="347"/>
      <point x="398" y="365" type="curve" smooth="yes"/>
      <point x="464" y="373"/>
      <point x="497" y="373"/>
      <point x="524" y="358" type="curve" smooth="yes"/>
      <point x="591" y="321"/>
      <point x="535" y="207"/>
      <point x="358" y="167" type="curve" smooth="yes"/>
      <point x="306" y="155"/>
      <point x="270" y="161"/>
      <point x="242" y="167" type="curve" smooth="yes"/>
      <point x="139" y="193"/>
      <point x="33" y="173"/>
      <point x="33" y="118" type="curve" smooth="yes"/>
      <point x="33" y="77"/>
      <point x="88" y="55"/>
      <point x="165" y="60" type="curve" smooth="yes"/>
      <point x="247" y="65"/>
      <point x="346" y="110"/>
      <point x="346" y="159" type="curve" smooth="yes"/>
      <point x="346" y="222"/>
      <point x="346" y="242"/>
      <point x="346" y="281" type="curve" smooth="yes"/>
      <point x="346" y="314"/>
      <point x="350" y="343"/>
      <point x="377" y="392" type="curve" smooth="yes"/>
      <point x="409" y="451"/>
      <point x="488" y="407"/>
      <point x="455" y="348" type="curve" smooth="yes"/>
      <point x="438" y="317"/>
      <point x="436" y="302"/>
      <point x="436" y="281" type="curve" smooth="yes"/>
      <point x="436" y="223"/>
      <point x="436" y="202"/>
      <point x="436" y="159" type="curve" smooth="yes"/>
      <point x="436" y="66"/>
      <point x="325" y="-20"/>
      <point x="171" y="-30" type="curve" smooth="yes"/>
      <point x="16" y="-40"/>
      <point x="-57" y="37"/>
      <point x="-57" y="118" type="curve" smooth="yes"/>
      <point x="-57" y="222"/>
      <point x="69" y="304"/>
      <point x="262" y="255" type="curve" smooth="yes"/>
      <point x="280" y="251"/>
      <point x="302" y="247"/>
      <point x="338" y="255" type="curve" smooth="yes"/>
      <point x="345" y="256"/>
      <point x="482" y="278"/>
      <point x="480" y="280" type="curve" smooth="yes"/>
      <point x="474" y="283"/>
      <point x="426" y="277"/>
      <point x="412" y="275" type="curve" smooth="yes"/>
      <point x="83" y="227"/>
      <point x="-20" y="260"/>
      <point x="-39" y="336" type="curve" smooth="yes"/>
      <point x="-61" y="425"/>
      <point x="42" y="492"/>
      <point x="182" y="492" type="curve" smooth="yes"/>
      <point x="221" y="492"/>
      <point x="265" y="486"/>
      <point x="334" y="496" type="curve" smooth="yes"/>
      <point x="401" y="505"/>
      <point x="413" y="415"/>
    </contour>
  </outline>
</glyph>
<glyph name="quotesingle" format="2">
  <advance width="297"/>
  <unicode hex="0027"/>
  <outline>
    <contour>
      <point x="-17" y="301" type="curve" smooth="yes"/>
      <point x="-17" y="363"/>
      <point x="-16" y="425"/>
      <point x="30" y="496" type="curve" smooth="yes"/>
      <point x="67" y="553"/>
      <point x="142" y="504"/>
      <point x="106" y="448" type="curve" smooth="yes"/>
      <point x="72" y="395"/>
      <point x="73" y="347"/>
      <point x="73" y="301" type="curve" smooth="yes"/>
      <point x="73" y="234"/>
      <point x="-17" y="234"/>
    </contour>
  </outline>
</glyph>
<glyph name="asterisk" format="2">
  <advance width="614"/>
  <unicode hex="002A"/>
  <outline>
    <contour>
      <point x="85" y="446" type="curve" smooth="yes"/>
      <point x="134" y="446"/>
      <point x="154" y="446"/>
      <point x="187" y="446" type="curve" smooth="yes"/>
      <point x="263" y="446"/>
      <point x="350" y="405"/>
      <point x="385" y="361" type="curve" smooth="yes"/>
      <point x="405" y="337"/>
      <point x="415" y="325"/>
      <point x="436" y="298" type="curve" smooth="yes"/>
      <point x="477" y="245"/>
      <point x="405" y="190"/>
      <point x="364" y="244" type="curve" smooth="yes"/>
      <point x="345" y="269"/>
      <point x="335" y="279"/>
      <point x="315" y="305" type="curve" smooth="yes"/>
      <point x="294" y="330"/>
      <point x="231" y="356"/>
      <point x="187" y="356" type="curve" smooth="yes"/>
      <point x="138" y="356"/>
      <point x="118" y="356"/>
      <point x="85" y="356" type="curve" smooth="yes"/>
      <point x="18" y="356"/>
      <point x="18" y="446"/>
    </contour>
    <contour>
      <point x="316" y="420" type="curve" smooth="yes"/>
      <point x="296" y="394"/>
      <point x="287" y="382"/>
      <point x="267" y="357" type="curve" smooth="yes"/>
      <point x="230" y="312"/>
      <point x="143" y="271"/>
      <point x="67" y="271" type="curve" smooth="yes"/>
      <point x="18" y="271"/>
      <point x="-2" y="271"/>
      <point x="-35" y="271" type="curve" smooth="yes"/>
      <point x="-102" y="271"/>
      <point x="-102" y="361"/>
      <point x="-35" y="361" type="curve" smooth="yes"/>
      <point x="14" y="361"/>
      <point x="34" y="361"/>
      <point x="67" y="361" type="curve" smooth="yes"/>
      <point x="111" y="361"/>
      <point x="176" y="388"/>
      <point x="195" y="411" type="curve" smooth="yes"/>
      <point x="215" y="437"/>
      <point x="224" y="449"/>
      <point x="244" y="474" type="curve" smooth="yes"/>
      <point x="285" y="528"/>
      <point x="357" y="473"/>
    </contour>
    <contour>
      <point x="504" y="356" type="curve" smooth="yes"/>
      <point x="455" y="356"/>
      <point x="435" y="356"/>
      <point x="402" y="356" type="curve" smooth="yes"/>
      <point x="326" y="356"/>
      <point x="239" y="397"/>
      <point x="204" y="441" type="curve" smooth="yes"/>
      <point x="184" y="466"/>
      <point x="174" y="478"/>
      <point x="154" y="503" type="curve" smooth="yes"/>
      <point x="112" y="556"/>
      <point x="182" y="612"/>
      <point x="224" y="559" type="curve" smooth="yes"/>
      <point x="244" y="534"/>
      <point x="254" y="522"/>
      <point x="274" y="497" type="curve" smooth="yes"/>
      <point x="295" y="472"/>
      <point x="358" y="446"/>
      <point x="402" y="446" type="curve" smooth="yes"/>
      <point x="451" y="446"/>
      <point x="471" y="446"/>
      <point x="504" y="446" type="curve" smooth="yes"/>
      <point x="572" y="446"/>
      <point x="572" y="356"/>
    </contour>
    <contour>
      <point x="33" y="213" type="curve" smooth="yes"/>
      <point x="54" y="241"/>
      <point x="68" y="254"/>
      <point x="87" y="278" type="curve" smooth="yes"/>
      <point x="123" y="324"/>
      <point x="206" y="361"/>
      <point x="282" y="361" type="curve" smooth="yes"/>
      <point x="331" y="361"/>
      <point x="351" y="361"/>
      <point x="384" y="361" type="curve" smooth="yes"/>
      <point x="452" y="361"/>
      <point x="452" y="271"/>
      <point x="384" y="271" type="curve" smooth="yes"/>
      <point x="335" y="271"/>
      <point x="315" y="271"/>
      <point x="282" y="271" type="curve" smooth="yes"/>
      <point x="238" y="271"/>
      <point x="178" y="248"/>
      <point x="159" y="224" type="curve" smooth="yes"/>
      <point x="138" y="196"/>
      <point x="124" y="183"/>
      <point x="105" y="159" type="curve" smooth="yes"/>
      <point x="64" y="105"/>
      <point x="-8" y="160"/>
    </contour>
    <contour>
      <point x="106" y="473" type="curve" smooth="yes"/>
      <point x="125" y="448"/>
      <point x="135" y="438"/>
      <point x="155" y="412" type="curve" smooth="yes"/>
      <point x="185" y="375"/>
      <point x="238" y="310"/>
      <point x="266" y="275" type="curve" smooth="yes"/>
      <point x="286" y="251"/>
      <point x="295" y="240"/>
      <point x="315" y="214" type="curve" smooth="yes"/>
      <point x="357" y="161"/>
      <point x="287" y="105"/>
      <point x="245" y="158" type="curve" smooth="yes"/>
      <point x="225" y="182"/>
      <point x="216" y="195"/>
      <point x="196" y="219" type="curve" smooth="yes"/>
      <point x="166" y="256"/>
      <point x="113" y="321"/>
      <point x="85" y="356" type="curve" smooth="yes"/>
      <point x="65" y="380"/>
      <point x="55" y="392"/>
      <point x="34" y="419" type="curve" smooth="yes"/>
      <point x="-7" y="472"/>
      <point x="65" y="527"/>
    </contour>
  </outline>
</glyph>
<glyph name="plus" format="2">
  <advance width="540"/>
  <unicode hex="002B"/>
  <outline>
    <contour>
      <point x="315" y="430" type="curve" smooth="yes"/>
      <point x="315" y="154" type="line" smooth="yes"/>
      <point x="315" y="87"/>
      <point x="225" y="87"/>
      <point x="225" y="154" type="curve" smooth="yes"/>
      <point x="225" y="430" type="line" smooth="yes"/>
      <point x="225" y="498"/>
      <point x="315" y="498"/>
    </contour>
    <contour>
      <point x="460" y="246" type="curve" smooth="yes"/>
      <point x="80" y="246" type="line" smooth="yes"/>
      <point x="12" y="246"/>
      <point x="13" y="336"/>
      <point x="80" y="336" type="curve" smooth="yes"/>
      <point x="460" y="336" type="line" smooth="yes"/>
      <point x="528" y="336"/>
      <point x="528" y="246"/>
    </contour>
  </outline>
</glyph>
<glyph name="comma" format="2">
  <advance width="269"/>
  <unicode hex="002C"/>
  <outline>
    <contour>
      <point x="-47" y="-67" type="curve" smooth="yes"/>
      <point x="-39" y="-45"/>
      <point x="-25" y="6"/>
      <point x="-34" y="43" type="curve" smooth="yes"/>
      <point x="-52" y="109"/>
      <point x="35" y="132"/>
      <point x="52" y="67" type="curve" smooth="yes"/>
      <point x="69" y="6"/>
      <point x="51" y="-63"/>
      <point x="37" y="-99" type="curve" smooth="yes"/>
      <point x="13" y="-162"/>
      <point x="-71" y="-130"/>
    </contour>
  </outline>
</glyph>
<glyph name="hyphen" format="2">
  <advance width="340"/>
  <unicode hex="002D"/>
  <outline>
    <contour>
      <point x="175" y="179" type="curve" smooth="yes"/>
      <point x="25" y="145"/>
      <point x="-42" y="166"/>
      <point x="-63" y="199" type="curve" smooth="yes"/>
      <point x="-99" y="257"/>
      <point x="-22" y="304"/>
      <point x="13" y="247" type="curve" smooth="yes"/>
      <point x="14" y="245"/>
      <point x="148" y="265"/>
      <point x="155" y="267" type="curve" smooth="yes"/>
      <point x="221" y="282"/>
      <point x="241" y="194"/>
    </contour>
  </outline>
</glyph>
<glyph name="period" format="2">
  <advance width="260"/>
  <unicode hex="002E"/>
  <outline>
    <contour>
      <point x="2" y="-26" type="curve" smooth="yes"/>
      <point x="-29" y="-17"/>
      <point x="-55" y="25"/>
      <point x="-24" y="78" type="curve" smooth="yes"/>
      <point x="10" y="136"/>
      <point x="88" y="90"/>
      <point x="54" y="32" type="curve" smooth="yes"/>
      <point x="53" y="31"/>
      <point x="27" y="60"/>
      <point x="28" y="60" type="curve" smooth="yes"/>
      <point x="93" y="41"/>
      <point x="67" y="-45"/>
    </contour>
  </outline>
</glyph>
<glyph name="slash" format="2">
  <advance width="490"/>
  <unicode hex="002F"/>
  <outline>
    <contour>
      <point x="322" y="499" type="curve" smooth="yes"/>
      <point x="282" y="452"/>
      <point x="270" y="426"/>
      <point x="257" y="398" type="curve" smooth="yes"/>
      <point x="197" y="269"/>
      <point x="133" y="133"/>
      <point x="69" y="-6" type="curve" smooth="yes"/>
      <point x="67" y="-9"/>
      <point x="39" y="-40"/>
      <point x="40" y="-41" type="curve" smooth="yes"/>
      <point x="88" y="-89"/>
      <point x="24" y="-153"/>
      <point x="-24" y="-105" type="curve" smooth="yes"/>
      <point x="-52" y="-76"/>
      <point x="-47" y="-41"/>
      <point x="-13" y="32" type="curve" smooth="yes"/>
      <point x="47" y="161"/>
      <point x="111" y="297"/>
      <point x="175" y="436" type="curve" smooth="yes"/>
      <point x="190" y="468"/>
      <point x="206" y="502"/>
      <point x="254" y="557" type="curve" smooth="yes"/>
      <point x="298" y="609"/>
      <point x="366" y="550"/>
    </contour>
  </outline>
</glyph>
<glyph name="zero" format="2">
  <advance width="592"/>
  <unicode hex="0030"/>
  <outline>
    <contour>
      <point x="259" y="85" type="curve" smooth="yes"/>
      <point x="273" y="86"/>
      <point x="276" y="86"/>
      <point x="285" y="95" type="curve" smooth="yes"/>
      <point x="311" y="119"/>
      <point x="342" y="174"/>
      <point x="342" y="229" type="curve" smooth="yes"/>
      <point x="342" y="330"/>
      <point x="278" y="399"/>
      <point x="176" y="399" type="curve" smooth="yes"/>
      <point x="73" y="399"/>
      <point x="10" y="330"/>
      <point x="10" y="229" type="curve" smooth="yes"/>
      <point x="10" y="179"/>
      <point x="19" y="123"/>
      <point x="58" y="102" type="curve" smooth="yes"/>
      <point x="80" y="89"/>
      <point x="117" y="86"/>
      <point x="152" y="85" type="curve" smooth="yes"/>
      <point x="219" y="84"/>
      <point x="218" y="-6"/>
      <point x="150" y="-5" type="curve" smooth="yes"/>
      <point x="94" y="-4"/>
      <point x="50" y="3"/>
      <point x="14" y="22" type="curve" smooth="yes"/>
      <point x="-56" y="61"/>
      <point x="-80" y="140"/>
      <point x="-80" y="229" type="curve" smooth="yes"/>
      <point x="-80" y="380"/>
      <point x="23" y="489"/>
      <point x="176" y="489" type="curve" smooth="yes"/>
      <point x="328" y="489"/>
      <point x="432" y="380"/>
      <point x="432" y="229" type="curve" smooth="yes"/>
      <point x="432" y="144"/>
      <point x="387" y="65"/>
      <point x="347" y="29" type="curve" smooth="yes"/>
      <point x="322" y="6"/>
      <point x="300" y="-4"/>
      <point x="263" y="-5" type="curve" smooth="yes"/>
      <point x="195" y="-8"/>
      <point x="192" y="82"/>
    </contour>
  </outline>
</glyph>
<glyph name="one" format="2">
  <advance width="344"/>
  <unicode hex="0031"/>
  <outline>
    <contour>
      <point x="43" y="524" type="curve" smooth="yes"/>
      <point x="92" y="526"/>
      <point x="130" y="520"/>
      <point x="148" y="488" type="curve" smooth="yes"/>
      <point x="166" y="458"/>
      <point x="144" y="370"/>
      <point x="144" y="323" type="curve" smooth="yes"/>
      <point x="144" y="218"/>
      <point x="144" y="171"/>
      <point x="144" y="108" type="curve" smooth="yes"/>
      <point x="144" y="105"/>
      <point x="144" y="83"/>
      <point x="145" y="82" type="curve" smooth="yes"/>
      <point x="208" y="57"/>
      <point x="175" y="-27"/>
      <point x="113" y="-2" type="curve" smooth="yes"/>
      <point x="74" y="13"/>
      <point x="54" y="49"/>
      <point x="54" y="108" type="curve" smooth="yes"/>
      <point x="54" y="202"/>
      <point x="54" y="253"/>
      <point x="54" y="323" type="curve" smooth="yes"/>
      <point x="54" y="483"/>
      <point x="75" y="434"/>
      <point x="70" y="444" type="curve" smooth="yes"/>
      <point x="69" y="445"/>
      <point x="49" y="434"/>
      <point x="47" y="434" type="curve" smooth="yes"/>
      <point x="-20" y="431"/>
      <point x="-24" y="521"/>
    </contour>
  </outline>
</glyph>
<glyph name="four" format="2">
  <advance width="525"/>
  <unicode hex="0034"/>
  <outline>
    <contour>
      <point x="442" y="159" type="curve" smooth="yes"/>
      <point x="351" y="159"/>
      <point x="259" y="159"/>
      <point x="198" y="159" type="curve" smooth="yes"/>
      <point x="149" y="159"/>
      <point x="119" y="159"/>
      <point x="100" y="159" type="curve" smooth="yes"/>
      <point x="80" y="159"/>
      <point x="-173" y="101"/>
      <point x="-60" y="229" type="curve" smooth="yes"/>
      <point x="-47" y="244"/>
      <point x="-19" y="270"/>
      <point x="12" y="299" type="curve" smooth="yes"/>
      <point x="59" y="342"/>
      <point x="119" y="398"/>
      <point x="154" y="431" type="curve" smooth="yes"/>
      <point x="180" y="456"/>
      <point x="207" y="483"/>
      <point x="221" y="498" type="curve" smooth="yes"/>
      <point x="353" y="634"/>
      <point x="295" y="421"/>
      <point x="295" y="395" type="curve" smooth="yes"/>
      <point x="295" y="379"/>
      <point x="295" y="360"/>
      <point x="295" y="343" type="curve" smooth="yes"/>
      <point x="295" y="244"/>
      <point x="295" y="134"/>
      <point x="295" y="102" type="curve" smooth="yes"/>
      <point x="295" y="99"/>
      <point x="295" y="83"/>
      <point x="296" y="82" type="curve" smooth="yes"/>
      <point x="359" y="57"/>
      <point x="326" y="-27"/>
      <point x="264" y="-2" type="curve" smooth="yes"/>
      <point x="226" y="13"/>
      <point x="205" y="43"/>
      <point x="205" y="102" type="curve" smooth="yes"/>
      <point x="205" y="150"/>
      <point x="205" y="277"/>
      <point x="205" y="343" type="curve" smooth="yes"/>
      <point x="205" y="369"/>
      <point x="205" y="384"/>
      <point x="205" y="395" type="curve" smooth="yes"/>
      <point x="205" y="712"/>
      <point x="297" y="446"/>
      <point x="287" y="436" type="curve" smooth="yes"/>
      <point x="271" y="419"/>
      <point x="244" y="394"/>
      <point x="216" y="367" type="curve" smooth="yes"/>
      <point x="181" y="332"/>
      <point x="121" y="276"/>
      <point x="74" y="233" type="curve" smooth="yes"/>
      <point x="49" y="210"/>
      <point x="19" y="182"/>
      <point x="8" y="169" type="curve" smooth="yes"/>
      <point x="2" y="163"/>
      <point x="-294" y="249"/>
      <point x="100" y="249" type="curve" smooth="yes"/>
      <point x="128" y="249"/>
      <point x="165" y="249"/>
      <point x="198" y="249" type="curve" smooth="yes"/>
      <point x="289" y="249"/>
      <point x="381" y="249"/>
      <point x="442" y="249" type="curve" smooth="yes"/>
      <point x="510" y="249"/>
      <point x="510" y="159"/>
    </contour>
  </outline>
</glyph>
<glyph name="seven" format="2">
  <advance width="483"/>
  <unicode hex="0037"/>
  <outline>
    <contour>
      <point x="75" y="567" type="curve" smooth="yes"/>
      <point x="413" y="567" type="line" smooth="yes"/>
      <point x="438" y="567"/>
      <point x="458" y="547"/>
      <point x="458" y="522" type="curve" smooth="yes"/>
      <point x="458" y="494" type="line" smooth="yes"/>
      <point x="458" y="486"/>
      <point x="456" y="478"/>
      <point x="451" y="470" type="curve" smooth="yes"/>
      <point x="210" y="78" type="line" smooth="yes"/>
      <point x="175" y="21"/>
      <point x="98" y="68"/>
      <point x="134" y="126" type="curve" smooth="yes"/>
      <point x="375" y="518" type="line"/>
      <point x="368" y="494" type="line"/>
      <point x="368" y="522" type="line"/>
      <point x="413" y="477" type="line"/>
      <point x="75" y="477" type="line" smooth="yes"/>
      <point x="8" y="477"/>
      <point x="8" y="567"/>
    </contour>
  </outline>
</glyph>
<glyph name="eight" format="2">
  <advance width="535"/>
  <unicode hex="0038"/>
  <outline>
    <contour>
      <point x="32" y="-37" type="curve" smooth="yes"/>
      <point x="-25" y="8"/>
      <point x="-75" y="63"/>
      <point x="-65" y="144" type="curve" smooth="yes"/>
      <point x="-52" y="245"/>
      <point x="111" y="351"/>
      <point x="239" y="351" type="curve" smooth="yes"/>
      <point x="246" y="351"/>
      <point x="276" y="324"/>
      <point x="274" y="327" type="curve" smooth="yes"/>
      <point x="258" y="363"/>
      <point x="217" y="399"/>
      <point x="149" y="399" type="curve" smooth="yes"/>
      <point x="89" y="399"/>
      <point x="39" y="378"/>
      <point x="36" y="336" type="curve" smooth="yes"/>
      <point x="33" y="292"/>
      <point x="58" y="266"/>
      <point x="118" y="266" type="curve" smooth="yes"/>
      <point x="257" y="266"/>
      <point x="366" y="231"/>
      <point x="370" y="133" type="curve" smooth="yes"/>
      <point x="373" y="62"/>
      <point x="323" y="0"/>
      <point x="188" y="-46" type="curve" smooth="yes"/>
      <point x="124" y="-67"/>
      <point x="96" y="18"/>
      <point x="160" y="40" type="curve" smooth="yes"/>
      <point x="228" y="63"/>
      <point x="281" y="93"/>
      <point x="280" y="129" type="curve" smooth="yes"/>
      <point x="278" y="167"/>
      <point x="172" y="176"/>
      <point x="118" y="176" type="curve" smooth="yes"/>
      <point x="-3" y="176"/>
      <point x="-59" y="254"/>
      <point x="-54" y="342" type="curve" smooth="yes"/>
      <point x="-49" y="427"/>
      <point x="27" y="489"/>
      <point x="149" y="489" type="curve" smooth="yes"/>
      <point x="262" y="489"/>
      <point x="330" y="423"/>
      <point x="356" y="365" type="curve" smooth="yes"/>
      <point x="387" y="296"/>
      <point x="382" y="261"/>
      <point x="239" y="261" type="curve" smooth="yes"/>
      <point x="166" y="261"/>
      <point x="32" y="190"/>
      <point x="25" y="132" type="curve" smooth="yes"/>
      <point x="19" y="90"/>
      <point x="58" y="57"/>
      <point x="88" y="33" type="curve" smooth="yes"/>
      <point x="141" y="-9"/>
      <point x="85" y="-79"/>
    </contour>
  </outline>
</glyph>
<glyph name="semicolon" format="2">
  <advance width="279"/>
  <unicode hex="003B"/>
  <outline>
    <contour>
      <point x="140" y="311" type="curve" smooth="yes"/>
      <point x="52" y="322"/>
      <point x="53" y="424"/>
      <point x="141" y="432" type="curve" smooth="yes"/>
      <point x="208" y="438"/>
      <point x="216" y="348"/>
      <point x="149" y="342" type="curve" smooth="yes"/>
      <point x="146" y="342"/>
      <point x="148" y="401"/>
      <point x="150" y="401" type="curve" smooth="yes"/>
      <point x="217" y="393"/>
      <point x="207" y="303"/>
    </contour>
    <contour>
      <point x="80" y="22" type="curve" smooth="yes"/>
      <point x="95" y="39"/>
      <point x="120" y="82"/>
      <point x="105" y="92" type="curve" smooth="yes"/>
      <point x="48" y="128"/>
      <point x="96" y="204"/>
      <point x="153" y="168" type="curve" smooth="yes"/>
      <point x="218" y="127"/>
      <point x="212" y="41"/>
      <point x="150" y="-36" type="curve" smooth="yes"/>
      <point x="107" y="-88"/>
      <point x="37" y="-31"/>
    </contour>
  </outline>
</glyph>
<glyph name="less" format="2">
  <advance width="447"/>
  <unicode hex="003C"/>
  <outline>
    <contour>
      <point x="255" y="286" type="curve" smooth="yes"/>
      <point x="188" y="257"/>
      <point x="193" y="278"/>
      <point x="119" y="245" type="curve" smooth="yes"/>
      <point x="108" y="240"/>
      <point x="55" y="218"/>
      <point x="63" y="213" type="curve" smooth="yes"/>
      <point x="120" y="177"/>
      <point x="190" y="160"/>
      <point x="263" y="150" type="curve" smooth="yes"/>
      <point x="330" y="141"/>
      <point x="318" y="51"/>
      <point x="251" y="60" type="curve" smooth="yes"/>
      <point x="163" y="72"/>
      <point x="82" y="94"/>
      <point x="15" y="137" type="curve" smooth="yes"/>
      <point x="-84" y="201"/>
      <point x="-48" y="271"/>
      <point x="83" y="327" type="curve" smooth="yes"/>
      <point x="171" y="366"/>
      <point x="164" y="345"/>
      <point x="219" y="368" type="curve" smooth="yes"/>
      <point x="281" y="395"/>
      <point x="317" y="312"/>
    </contour>
  </outline>
</glyph>
<glyph name="equal" format="2">
  <advance width="490"/>
  <unicode hex="003D"/>
  <outline>
    <contour>
      <point x="300" y="250" type="curve" smooth="yes"/>
      <point x="119" y="209"/>
      <point x="4" y="215"/>
      <point x="-63" y="256" type="curve" smooth="yes"/>
      <point x="-121" y="291"/>
      <point x="-74" y="368"/>
      <point x="-17" y="332" type="curve" smooth="yes"/>
      <point x="34" y="302"/>
      <point x="145" y="307"/>
      <point x="280" y="338" type="curve" smooth="yes"/>
      <point x="346" y="353"/>
      <point x="366" y="265"/>
    </contour>
    <contour>
      <point x="300" y="80" type="curve" smooth="yes"/>
      <point x="119" y="39"/>
      <point x="4" y="45"/>
      <point x="-63" y="86" type="curve" smooth="yes"/>
      <point x="-121" y="121"/>
      <point x="-74" y="198"/>
      <point x="-17" y="162" type="curve" smooth="yes"/>
      <point x="34" y="132"/>
      <point x="145" y="137"/>
      <point x="280" y="168" type="curve" smooth="yes"/>
      <point x="346" y="183"/>
      <point x="366" y="95"/>
    </contour>
  </outline>
</glyph>
<glyph name="C" format="2">
  <advance width="600"/>
  <unicode hex="0043"/>
  <outline>
    <contour>
      <point x="446" y="29" type="curve" smooth="yes"/>
      <point x="369" y="-12"/>
      <point x="290" y="-30"/>
      <point x="232" y="-30" type="curve" smooth="yes"/>
      <point x="59" y="-32"/>
      <point x="-75" y="72"/>
      <point x="-75" y="229" type="curve" smooth="yes"/>
      <point x="-75" y="386"/>
      <point x="62" y="489"/>
      <point x="236" y="488" type="curve"/>
      <point x="288" y="488"/>
      <point x="359" y="486"/>
      <point x="430" y="478" type="curve" smooth="yes"/>
      <point x="497" y="470"/>
      <point x="487" y="381"/>
      <point x="420" y="388" type="curve" smooth="yes"/>
      <point x="353" y="396"/>
      <point x="286" y="398"/>
      <point x="236" y="398" type="curve" smooth="yes"/>
      <point x="116" y="399"/>
      <point x="15" y="337"/>
      <point x="15" y="229" type="curve" smooth="yes"/>
      <point x="15" y="121"/>
      <point x="112" y="58"/>
      <point x="232" y="60" type="curve" smooth="yes"/>
      <point x="278" y="60"/>
      <point x="343" y="76"/>
      <point x="404" y="109" type="curve" smooth="yes"/>
      <point x="463" y="141"/>
      <point x="506" y="61"/>
    </contour>
  </outline>
</glyph>
<glyph name="F" format="2">
  <advance width="503"/>
  <unicode hex="0046"/>
  <outline>
    <contour>
      <point x="341" y="222" type="curve" smooth="yes"/>
      <point x="273" y="222"/>
      <point x="243" y="249"/>
      <point x="188" y="266" type="curve" smooth="yes"/>
      <point x="178" y="270"/>
      <point x="170" y="246"/>
      <point x="170" y="233" type="curve" smooth="yes"/>
      <point x="170" y="198"/>
      <point x="170" y="188"/>
      <point x="170" y="154" type="curve" smooth="yes"/>
      <point x="170" y="19"/>
      <point x="-40" y="-64"/>
      <point x="-40" y="73" type="curve" smooth="yes"/>
      <point x="-40" y="185"/>
      <point x="-51" y="313"/>
      <point x="-39" y="387" type="curve" smooth="yes"/>
      <point x="-28" y="455"/>
      <point x="34" y="513"/>
      <point x="130" y="513" type="curve" smooth="yes"/>
      <point x="179" y="513"/>
      <point x="241" y="485"/>
      <point x="303" y="485" type="curve" smooth="yes"/>
      <point x="371" y="485"/>
      <point x="371" y="395"/>
      <point x="303" y="395" type="curve" smooth="yes"/>
      <point x="223" y="395"/>
      <point x="168" y="423"/>
      <point x="130" y="423" type="curve" smooth="yes"/>
      <point x="87" y="423"/>
      <point x="54" y="403"/>
      <point x="49" y="373" type="curve" smooth="yes"/>
      <point x="39" y="308"/>
      <point x="50" y="201"/>
      <point x="50" y="73" type="curve" smooth="yes"/>
      <point x="50" y="68"/>
      <point x="80" y="149"/>
      <point x="80" y="154" type="curve" smooth="yes"/>
      <point x="80" y="205"/>
      <point x="80" y="209"/>
      <point x="80" y="233" type="curve" smooth="yes"/>
      <point x="80" y="320"/>
      <point x="151" y="373"/>
      <point x="216" y="352" type="curve" smooth="yes"/>
      <point x="248" y="341"/>
      <point x="300" y="312"/>
      <point x="341" y="312" type="curve" smooth="yes"/>
      <point x="409" y="312"/>
      <point x="409" y="222"/>
    </contour>
  </outline>
</glyph>
<glyph name="G" format="2">
  <advance width="653"/>
  <unicode hex="0047"/>
  <outline>
    <contour>
      <point x="433" y="391" type="curve" smooth="yes"/>
      <point x="350" y="395"/>
      <point x="297" y="403"/>
      <point x="249" y="403" type="curve" smooth="yes"/>
      <point x="108" y="402"/>
      <point x="15" y="330"/>
      <point x="15" y="232" type="curve" smooth="yes"/>
      <point x="15" y="132"/>
      <point x="101" y="61"/>
      <point x="241" y="61" type="curve" smooth="yes"/>
      <point x="316" y="61"/>
      <point x="422" y="103"/>
      <point x="444" y="133" type="curve" smooth="yes"/>
      <point x="463" y="158"/>
      <point x="465" y="175"/>
      <point x="459" y="203" type="curve" smooth="yes"/>
      <point x="458" y="206"/>
      <point x="419" y="193"/>
      <point x="416" y="193" type="curve" smooth="yes"/>
      <point x="367" y="193"/>
      <point x="320" y="193"/>
      <point x="297" y="193" type="curve" smooth="yes"/>
      <point x="230" y="193"/>
      <point x="230" y="283"/>
      <point x="297" y="283" type="curve" smooth="yes"/>
      <point x="331" y="283"/>
      <point x="383" y="283"/>
      <point x="416" y="283" type="curve" smooth="yes"/>
      <point x="485" y="283"/>
      <point x="532" y="288"/>
      <point x="547" y="223" type="curve" smooth="yes"/>
      <point x="559" y="171"/>
      <point x="551" y="128"/>
      <point x="516" y="79" type="curve" smooth="yes"/>
      <point x="482" y="33"/>
      <point x="359" y="-29"/>
      <point x="241" y="-29" type="curve" smooth="yes"/>
      <point x="41" y="-29"/>
      <point x="-75" y="90"/>
      <point x="-75" y="232" type="curve" smooth="yes"/>
      <point x="-75" y="372"/>
      <point x="46" y="492"/>
      <point x="249" y="493" type="curve" smooth="yes"/>
      <point x="301" y="493"/>
      <point x="360" y="485"/>
      <point x="437" y="481" type="curve" smooth="yes"/>
      <point x="505" y="478"/>
      <point x="500" y="388"/>
    </contour>
  </outline>
</glyph>
<glyph name="L" format="2">
  <advance width="498"/>
  <unicode hex="004C"/>
  <outline>
    <contour>
      <point x="293" y="-22" type="curve" smooth="yes"/>
      <point x="221" y="-22"/>
      <point x="210" y="13"/>
      <point x="150" y="13" type="curve" smooth="yes"/>
      <point x="21" y="13"/>
      <point x="-40" y="17"/>
      <point x="-40" y="134" type="curve" smooth="yes"/>
      <point x="-40" y="225"/>
      <point x="-40" y="298"/>
      <point x="-40" y="359" type="curve" smooth="yes"/>
      <point x="-40" y="392"/>
      <point x="-39" y="426"/>
      <point x="-16" y="477" type="curve" smooth="yes"/>
      <point x="13" y="538"/>
      <point x="94" y="500"/>
      <point x="66" y="439" type="curve" smooth="yes"/>
      <point x="49" y="404"/>
      <point x="50" y="382"/>
      <point x="50" y="359" type="curve" smooth="yes"/>
      <point x="50" y="268"/>
      <point x="50" y="195"/>
      <point x="50" y="134" type="curve" smooth="yes"/>
      <point x="50" y="86"/>
      <point x="98" y="103"/>
      <point x="150" y="103" type="curve" smooth="yes"/>
      <point x="238" y="103"/>
      <point x="243" y="68"/>
      <point x="293" y="68" type="curve" smooth="yes"/>
      <point x="361" y="68"/>
      <point x="361" y="-22"/>
    </contour>
  </outline>
</glyph>
<glyph name="Q" format="2">
  <advance width="732"/>
  <unicode hex="0051"/>
  <outline>
    <contour>
      <point x="410" y="-62" type="curve" smooth="yes"/>
      <point x="389" y="-40"/>
      <point x="346" y="12"/>
      <point x="307" y="55" type="curve" smooth="yes"/>
      <point x="282" y="83"/>
      <point x="260" y="109"/>
      <point x="248" y="123" type="curve" smooth="yes"/>
      <point x="204" y="174"/>
      <point x="272" y="233"/>
      <point x="316" y="181" type="curve" smooth="yes"/>
      <point x="328" y="167"/>
      <point x="350" y="143"/>
      <point x="375" y="115" type="curve" smooth="yes"/>
      <point x="414" y="70"/>
      <point x="457" y="20"/>
      <point x="476" y="-2" type="curve" smooth="yes"/>
      <point x="522" y="-52"/>
      <point x="455" y="-112"/>
    </contour>
    <contour>
      <point x="277" y="-30" type="curve" smooth="yes"/>
      <point x="80" y="-45"/>
      <point x="-75" y="68"/>
      <point x="-75" y="229" type="curve" smooth="yes"/>
      <point x="-75" y="377"/>
      <point x="56" y="489"/>
      <point x="248" y="489" type="curve" smooth="yes"/>
      <point x="436" y="489"/>
      <point x="562" y="380"/>
      <point x="586" y="252" type="curve" smooth="yes"/>
      <point x="598" y="191"/>
      <point x="587" y="145"/>
      <point x="575" y="119" type="curve" smooth="yes"/>
      <point x="548" y="64"/>
      <point x="499" y="69"/>
      <point x="435" y="146" type="curve"/>
      <point x="424" y="159"/>
      <point x="403" y="184"/>
      <point x="377" y="212" type="curve" smooth="yes"/>
      <point x="332" y="262"/>
      <point x="399" y="322"/>
      <point x="445" y="272" type="curve" smooth="yes"/>
      <point x="471" y="242"/>
      <point x="490" y="219"/>
      <point x="505" y="204" type="curve"/>
      <point x="507" y="201"/>
      <point x="493" y="156"/>
      <point x="493" y="157" type="curve" smooth="yes"/>
      <point x="501" y="172"/>
      <point x="504" y="201"/>
      <point x="498" y="236" type="curve" smooth="yes"/>
      <point x="480" y="328"/>
      <point x="384" y="399"/>
      <point x="248" y="399" type="curve" smooth="yes"/>
      <point x="115" y="399"/>
      <point x="15" y="332"/>
      <point x="15" y="229" type="curve" smooth="yes"/>
      <point x="15" y="117"/>
      <point x="133" y="49"/>
      <point x="271" y="60" type="curve" smooth="yes"/>
      <point x="338" y="65"/>
      <point x="345" y="-25"/>
    </contour>
  </outline>
</glyph>
<glyph name="R" format="2">
  <advance width="595"/>
  <unicode hex="0052"/>
  <outline>
    <contour>
      <point x="25" y="-4" type="curve" smooth="yes"/>
      <point x="-33" y="10"/>
      <point x="-40" y="65"/>
      <point x="-40" y="105" type="curve" smooth="yes"/>
      <point x="-40" y="167"/>
      <point x="-40" y="287"/>
      <point x="-40" y="355" type="curve" smooth="yes"/>
      <point x="-40" y="436"/>
      <point x="25" y="513"/>
      <point x="117" y="513" type="curve" smooth="yes"/>
      <point x="147" y="513"/>
      <point x="174" y="513"/>
      <point x="200" y="513" type="curve" smooth="yes"/>
      <point x="338" y="513"/>
      <point x="384" y="413"/>
      <point x="380" y="325" type="curve" smooth="yes"/>
      <point x="376" y="235"/>
      <point x="297" y="171"/>
      <point x="172" y="171" type="curve" smooth="yes"/>
      <point x="135" y="171" type="line" smooth="yes"/>
      <point x="-32" y="171"/>
      <point x="90" y="346"/>
      <point x="255" y="346" type="curve" smooth="yes"/>
      <point x="351" y="346"/>
      <point x="405" y="290"/>
      <point x="404" y="214" type="curve" smooth="yes"/>
      <point x="403" y="171"/>
      <point x="385" y="90"/>
      <point x="432" y="76" type="curve" smooth="yes"/>
      <point x="497" y="57"/>
      <point x="472" y="-29"/>
      <point x="408" y="-10" type="curve" smooth="yes"/>
      <point x="295" y="22"/>
      <point x="313" y="114"/>
      <point x="314" y="216" type="curve" smooth="yes"/>
      <point x="315" y="245"/>
      <point x="292" y="256"/>
      <point x="255" y="256" type="curve" smooth="yes"/>
      <point x="248" y="256"/>
      <point x="128" y="261"/>
      <point x="135" y="261" type="curve" smooth="yes"/>
      <point x="172" y="261" type="line" smooth="yes"/>
      <point x="236" y="261"/>
      <point x="288" y="283"/>
      <point x="290" y="329" type="curve" smooth="yes"/>
      <point x="292" y="377"/>
      <point x="276" y="423"/>
      <point x="200" y="423" type="curve" smooth="yes"/>
      <point x="161" y="423"/>
      <point x="137" y="423"/>
      <point x="117" y="423" type="curve" smooth="yes"/>
      <point x="77" y="423"/>
      <point x="50" y="390"/>
      <point x="50" y="355" type="curve" smooth="yes"/>
      <point x="50" y="254"/>
      <point x="50" y="147"/>
      <point x="50" y="105" type="curve" smooth="yes"/>
      <point x="50" y="103"/>
      <point x="43" y="84"/>
      <point x="45" y="84" type="curve" smooth="yes"/>
      <point x="111" y="68"/>
      <point x="91" y="-19"/>
    </contour>
  </outline>
</glyph>
<glyph name="T" format="2">
  <advance width="498"/>
  <unicode hex="0054"/>
  <outline>
    <contour>
      <point x="303" y="392" type="curve" smooth="yes"/>
      <point x="192" y="392"/>
      <point x="98" y="392"/>
      <point x="24" y="392" type="curve" smooth="yes"/>
      <point x="-162" y="392"/>
      <point x="-33" y="569"/>
      <point x="136" y="569" type="curve" smooth="yes"/>
      <point x="250" y="569"/>
      <point x="243" y="467"/>
      <point x="196" y="346" type="curve" smooth="yes"/>
      <point x="168" y="274"/>
      <point x="173" y="178"/>
      <point x="173" y="130" type="curve" smooth="yes"/>
      <point x="173" y="126"/>
      <point x="174" y="68"/>
      <point x="176" y="67" type="curve" smooth="yes"/>
      <point x="230" y="27"/>
      <point x="177" y="-45"/>
      <point x="122" y="-5" type="curve" smooth="yes"/>
      <point x="99" y="12"/>
      <point x="83" y="41"/>
      <point x="83" y="130" type="curve" smooth="yes"/>
      <point x="83" y="188"/>
      <point x="78" y="290"/>
      <point x="112" y="378" type="curve" smooth="yes"/>
      <point x="118" y="394"/>
      <point x="150" y="479"/>
      <point x="136" y="479" type="curve" smooth="yes"/>
      <point x="128" y="479"/>
      <point x="16" y="482"/>
      <point x="24" y="482" type="curve" smooth="yes"/>
      <point x="135" y="482"/>
      <point x="229" y="482"/>
      <point x="303" y="482" type="curve" smooth="yes"/>
      <point x="371" y="482"/>
      <point x="371" y="392"/>
    </contour>
  </outline>
</glyph>
<glyph name="X" format="2">
  <advance width="617"/>
  <unicode hex="0058"/>
  <outline>
    <contour>
      <point x="57" y="469" type="curve" smooth="yes"/>
      <point x="59" y="442"/>
      <point x="69" y="421"/>
      <point x="85" y="405" type="curve" smooth="yes"/>
      <point x="124" y="366"/>
      <point x="201" y="338"/>
      <point x="251" y="289" type="curve" smooth="yes"/>
      <point x="303" y="237"/>
      <point x="316" y="176"/>
      <point x="355" y="137" type="curve" smooth="yes"/>
      <point x="383" y="109"/>
      <point x="412" y="79"/>
      <point x="441" y="51" type="curve" smooth="yes"/>
      <point x="490" y="4"/>
      <point x="427" y="-60"/>
      <point x="379" y="-13" type="curve" smooth="yes"/>
      <point x="350" y="15"/>
      <point x="321" y="45"/>
      <point x="291" y="73" type="curve" smooth="yes"/>
      <point x="240" y="124"/>
      <point x="227" y="185"/>
      <point x="187" y="225" type="curve" smooth="yes"/>
      <point x="148" y="264"/>
      <point x="71" y="292"/>
      <point x="21" y="341" type="curve" smooth="yes"/>
      <point x="-9" y="371"/>
      <point x="-29" y="412"/>
      <point x="-33" y="461" type="curve" smooth="yes"/>
      <point x="-38" y="529"/>
      <point x="52" y="536"/>
    </contour>
    <contour>
      <point x="433" y="411" type="curve" smooth="yes"/>
      <point x="409" y="388"/>
      <point x="385" y="363"/>
      <point x="361" y="341" type="curve" smooth="yes"/>
      <point x="316" y="295"/>
      <point x="205" y="205"/>
      <point x="160" y="161" type="curve" smooth="yes"/>
      <point x="119" y="121"/>
      <point x="137" y="121"/>
      <point x="87" y="73" type="curve" smooth="yes"/>
      <point x="58" y="44"/>
      <point x="28" y="14"/>
      <point x="-1" y="-13" type="curve" smooth="yes"/>
      <point x="-49" y="-60"/>
      <point x="-112" y="4"/>
      <point x="-63" y="51" type="curve" smooth="yes"/>
      <point x="-34" y="80"/>
      <point x="-4" y="110"/>
      <point x="25" y="137" type="curve" smooth="yes"/>
      <point x="65" y="177"/>
      <point x="47" y="177"/>
      <point x="98" y="225" type="curve" smooth="yes"/>
      <point x="145" y="271"/>
      <point x="254" y="361"/>
      <point x="299" y="405" type="curve" smooth="yes"/>
      <point x="323" y="428"/>
      <point x="347" y="453"/>
      <point x="371" y="475" type="curve" smooth="yes"/>
      <point x="420" y="522"/>
      <point x="482" y="457"/>
    </contour>
  </outline>
</glyph>
<glyph name="Y" format="2">
  <advance width="582"/>
  <unicode hex="0059"/>
  <outline>
    <contour>
      <point x="434" y="427" type="curve" smooth="yes"/>
      <point x="398" y="389"/>
      <point x="377" y="361"/>
      <point x="355" y="334" type="curve" smooth="yes"/>
      <point x="311" y="280"/>
      <point x="287" y="248"/>
      <point x="248" y="196" type="curve" smooth="yes"/>
      <point x="232" y="175"/>
      <point x="216" y="151"/>
      <point x="216" y="124" type="curve" smooth="yes"/>
      <point x="216" y="105"/>
      <point x="216" y="92"/>
      <point x="216" y="69" type="curve" smooth="yes"/>
      <point x="216" y="64"/>
      <point x="246" y="152"/>
      <point x="246" y="157" type="curve" smooth="yes"/>
      <point x="246" y="185"/>
      <point x="246" y="196"/>
      <point x="246" y="209" type="curve" smooth="yes"/>
      <point x="246" y="257"/>
      <point x="237" y="186"/>
      <point x="95" y="268" type="curve" smooth="yes"/>
      <point x="20" y="310"/>
      <point x="6" y="348"/>
      <point x="-56" y="431" type="curve" smooth="yes"/>
      <point x="-97" y="485"/>
      <point x="-25" y="539"/>
      <point x="16" y="485" type="curve" smooth="yes"/>
      <point x="63" y="423"/>
      <point x="83" y="378"/>
      <point x="139" y="346" type="curve" smooth="yes"/>
      <point x="198" y="312"/>
      <point x="336" y="327"/>
      <point x="336" y="209" type="curve" smooth="yes"/>
      <point x="336" y="190"/>
      <point x="336" y="176"/>
      <point x="336" y="157" type="curve" smooth="yes"/>
      <point x="336" y="19"/>
      <point x="126" y="-63"/>
      <point x="126" y="69" type="curve" smooth="yes"/>
      <point x="126" y="103"/>
      <point x="126" y="111"/>
      <point x="126" y="124" type="curve" smooth="yes"/>
      <point x="126" y="174"/>
      <point x="148" y="213"/>
      <point x="176" y="250" type="curve" smooth="yes"/>
      <point x="215" y="302"/>
      <point x="241" y="336"/>
      <point x="285" y="392" type="curve" smooth="yes"/>
      <point x="309" y="421"/>
      <point x="330" y="449"/>
      <point x="370" y="489" type="curve" smooth="yes"/>
      <point x="417" y="538"/>
      <point x="481" y="475"/>
    </contour>
  </outline>
</glyph>
<glyph name="Z" format="2">
  <advance width="595"/>
  <unicode hex="005A"/>
  <outline>
    <contour>
      <point x="17" y="495" type="curve" smooth="yes"/>
      <point x="49" y="487"/>
      <point x="144" y="482"/>
      <point x="203" y="482" type="curve" smooth="yes"/>
      <point x="236" y="482"/>
      <point x="250" y="483"/>
      <point x="291" y="485" type="curve" smooth="yes"/>
      <point x="334" y="488"/>
      <point x="634" y="584"/>
      <point x="483" y="432" type="curve" smooth="yes"/>
      <point x="455" y="406"/>
      <point x="444" y="395"/>
      <point x="421" y="372" type="curve" smooth="yes"/>
      <point x="388" y="340"/>
      <point x="273" y="228"/>
      <point x="241" y="196" type="curve" smooth="yes"/>
      <point x="217" y="171"/>
      <point x="198" y="155"/>
      <point x="180" y="136" type="curve" smooth="yes"/>
      <point x="175" y="131"/>
      <point x="65" y="69"/>
      <point x="72" y="69" type="curve" smooth="yes"/>
      <point x="105" y="66"/>
      <point x="122" y="65"/>
      <point x="162" y="65" type="curve" smooth="yes"/>
      <point x="227" y="65"/>
      <point x="293" y="65"/>
      <point x="383" y="78" type="curve" smooth="yes"/>
      <point x="450" y="89"/>
      <point x="463" y="0"/>
      <point x="397" y="-10" type="curve" smooth="yes"/>
      <point x="301" y="-25"/>
      <point x="231" y="-25"/>
      <point x="162" y="-25" type="curve" smooth="yes"/>
      <point x="118" y="-25"/>
      <point x="99" y="-24"/>
      <point x="66" y="-21" type="curve" smooth="yes"/>
      <point x="-92" y="-10"/>
      <point x="18" y="98"/>
      <point x="114" y="198" type="curve" smooth="yes"/>
      <point x="134" y="219"/>
      <point x="155" y="237"/>
      <point x="177" y="258" type="curve" smooth="yes"/>
      <point x="209" y="292"/>
      <point x="324" y="404"/>
      <point x="359" y="438" type="curve" smooth="yes"/>
      <point x="382" y="459"/>
      <point x="393" y="470"/>
      <point x="419" y="496" type="curve" smooth="yes"/>
      <point x="434" y="510"/>
      <point x="739" y="422"/>
      <point x="295" y="395" type="curve" smooth="yes"/>
      <point x="252" y="393"/>
      <point x="238" y="392"/>
      <point x="203" y="392" type="curve" smooth="yes"/>
      <point x="128" y="392"/>
      <point x="33" y="397"/>
      <point x="-7" y="409" type="curve" smooth="yes"/>
      <point x="-72" y="427"/>
      <point x="-48" y="513"/>
    </contour>
  </outline>
</glyph>
<glyph name="backslash" format="2">
  <advance width="490"/>
  <unicode hex="005C"/>
  <outline>
    <contour>
      <point x="284" y="-114" type="curve" smooth="yes"/>
      <point x="235" y="-92"/>
      <point x="205" y="-56"/>
      <point x="184" y="-13" type="curve" smooth="yes"/>
      <point x="121" y="122"/>
      <point x="56" y="266"/>
      <point x="-12" y="410" type="curve" smooth="yes"/>
      <point x="-27" y="445"/>
      <point x="-36" y="486"/>
      <point x="-22" y="539" type="curve" smooth="yes"/>
      <point x="-4" y="605"/>
      <point x="83" y="582"/>
      <point x="66" y="517" type="curve" smooth="yes"/>
      <point x="58" y="486"/>
      <point x="61" y="467"/>
      <point x="70" y="448" type="curve" smooth="yes"/>
      <point x="136" y="309"/>
      <point x="201" y="164"/>
      <point x="266" y="25" type="curve" smooth="yes"/>
      <point x="277" y="1"/>
      <point x="293" y="-20"/>
      <point x="320" y="-32" type="curve" smooth="yes"/>
      <point x="382" y="-59"/>
      <point x="345" y="-142"/>
    </contour>
  </outline>
</glyph>
<glyph name="asciicircum" format="2">
  <advance width="560"/>
  <unicode hex="005E"/>
  <outline>
    <contour>
      <point x="-45" y="230" type="curve" smooth="yes"/>
      <point x="-13" y="277"/>
      <point x="22" y="324"/>
      <point x="62" y="386" type="curve" smooth="yes"/>
      <point x="137" y="499"/>
      <point x="174" y="503"/>
      <point x="255" y="384" type="curve" smooth="yes"/>
      <point x="289" y="335"/>
      <point x="324" y="302"/>
      <point x="393" y="293" type="curve" smooth="yes"/>
      <point x="460" y="284"/>
      <point x="448" y="195"/>
      <point x="381" y="203" type="curve" smooth="yes"/>
      <point x="284" y="216"/>
      <point x="227" y="265"/>
      <point x="181" y="334" type="curve" smooth="yes"/>
      <point x="154" y="373"/>
      <point x="162" y="374"/>
      <point x="138" y="336" type="curve" smooth="yes"/>
      <point x="96" y="274"/>
      <point x="61" y="226"/>
      <point x="29" y="180" type="curve" smooth="yes"/>
      <point x="-9" y="124"/>
      <point x="-83" y="175"/>
    </contour>
  </outline>
</glyph>
<glyph name="grave" format="2">
  <advance width="408"/>
  <unicode hex="0060"/>
  <outline>
    <contour>
      <point x="97" y="383" type="curve" smooth="yes"/>
      <point x="58" y="416"/>
      <point x="24" y="445"/>
      <point x="11" y="496" type="curve" smooth="yes"/>
      <point x="-5" y="561"/>
      <point x="82" y="584"/>
      <point x="99" y="518" type="curve" smooth="yes"/>
      <point x="105" y="492"/>
      <point x="134" y="470"/>
      <point x="155" y="453" type="curve" smooth="yes"/>
      <point x="207" y="409"/>
      <point x="149" y="340"/>
    </contour>
  </outline>
</glyph>
<glyph name="a" format="2">
  <advance width="584"/>
  <unicode hex="0061"/>
  <outline>
    <contour>
      <point x="514.3784452076646" y="372.92091320981973" type="curve" smooth="yes"/>
      <point x="491.0523655433307" y="325.6547511085711"/>
      <point x="519.0120541362161" y="319.0770689411392"/>
      <point x="518.997158034063" y="233.72869005123493" type="curve" smooth="yes"/>
      <point x="518.9779664334513" y="123.76891777749529"/>
      <point x="330.1786497597713" y="-14.74206591173957"/>
      <point x="164.71655787782007" y="-32.33562947553784" type="curve" smooth="yes"/>
      <point x="-0.41502306230341246" y="-49.894049852171975"/>
      <point x="-81.0340806073598" y="54.707806103938445"/>
      <point x="-81.01492734201817" y="164.44793345790225" type="curve" smooth="yes"/>
      <point x="-80.99557142476931" y="275.3491707172046"/>
      <point x="17.229899062974983" y="360.76093065034894"/>
      <point x="159.0114794732378" y="360.76093065034894" type="curve" smooth="yes"/>
      <point x="299.1155795411278" y="360.76093065034894"/>
      <point x="389.0033758769941" y="269.34296135588966"/>
      <point x="388.98407819215794" y="158.7753712454609" type="curve" smooth="yes"/>
      <point x="388.9785143656002" y="126.89699311307302"/>
      <point x="388.9718471613839" y="88.6967266443656"/>
      <point x="388.96902175561064" y="72.50834394070208" type="curve" smooth="yes"/>
      <point x="388.9687145970977" y="70.74845528853263"/>
      <point x="385.24551713941486" y="60.35677634338038"/>
      <point x="386.75379514500503" y="59.66348687434391" type="curve" smooth="yes"/>
      <point x="448.0849016285225" y="31.472258140792032"/>
      <point x="410.4965966504533" y="-50.302550503897905"/>
      <point x="349.1654901669358" y="-22.11132177034603" type="curve" smooth="yes"/>
      <point x="312.42615735220625" y="-5.223856432076334"/>
      <point x="298.9615412173569" y="29.655870660351102"/>
      <point x="298.969023126389" y="72.52405190365104" type="curve" smooth="yes"/>
      <point x="298.97323358973" y="96.64822994978236"/>
      <point x="298.9803459910217" y="137.3992877785688"/>
      <point x="298.9840795629363" y="158.79107920840985" type="curve" smooth="yes"/>
      <point x="298.9955903824368" y="224.743217154833"/>
      <point x="242.58176372478388" y="270.76093065034894"/>
      <point x="159.0114794732378" y="270.76093065034894" type="curve" smooth="yes"/>
      <point x="75.53191460722762" y="270.76093065034894"/>
      <point x="8.996467856100816" y="229.72975570106013"/>
      <point x="8.985071287203496" y="164.43222549495323" type="curve" smooth="yes"/>
      <point x="8.973392622732813" y="97.51840670335571"/>
      <point x="54.511867707788205" y="46.45366151152231"/>
      <point x="155.2005123287053" y="57.15987251817788" type="curve" smooth="yes"/>
      <point x="253.99772613942253" y="67.66496792302227"/>
      <point x="428.98570012345897" y="168.0875517339063"/>
      <point x="428.9971594048413" y="233.7443980141839" type="curve" smooth="yes"/>
      <point x="429.0065536194623" y="287.56928324885"/>
      <point x="396.69055403065835" y="337.8150861446733"/>
      <point x="433.6714082676845" y="412.7502263895455" type="curve" smooth="yes"/>
      <point x="463.5433931524788" y="473.28050409453067"/>
      <point x="544.2504300924589" y="433.4511909148049"/>
    </contour>
  </outline>
</glyph>
<glyph name="b" format="2">
  <advance width="584"/>
  <unicode hex="0062"/>
  <outline>
    <contour>
      <point x="-16" y="3" type="curve" smooth="yes"/>
      <point x="-46" y="32"/>
      <point x="-54" y="50"/>
      <point x="-54" y="165" type="curve" smooth="yes"/>
      <point x="-54" y="277"/>
      <point x="42" y="361"/>
      <point x="185" y="361" type="curve" smooth="yes"/>
      <point x="327" y="361"/>
      <point x="426" y="274"/>
      <point x="426" y="164" type="curve" smooth="yes"/>
      <point x="426" y="41"/>
      <point x="340" y="-16"/>
      <point x="241" y="20" type="curve" smooth="yes"/>
      <point x="149" y="53"/>
      <point x="90" y="147"/>
      <point x="75" y="206" type="curve" smooth="yes"/>
      <point x="49" y="315"/>
      <point x="-54" y="288"/>
      <point x="-54" y="418" type="curve" smooth="yes"/>
      <point x="-54" y="440"/>
      <point x="-50" y="470"/>
      <point x="-38" y="505" type="curve" smooth="yes"/>
      <point x="-16" y="568"/>
      <point x="70" y="539"/>
      <point x="48" y="475" type="curve" smooth="yes"/>
      <point x="40" y="453"/>
      <point x="36" y="432"/>
      <point x="36" y="418" type="curve" smooth="yes"/>
      <point x="36" y="332"/>
      <point x="123" y="392"/>
      <point x="163" y="228" type="curve" smooth="yes"/>
      <point x="172" y="191"/>
      <point x="214" y="125"/>
      <point x="271" y="104" type="curve" smooth="yes"/>
      <point x="315" y="88"/>
      <point x="336" y="110"/>
      <point x="336" y="164" type="curve" smooth="yes"/>
      <point x="336" y="229"/>
      <point x="268" y="271"/>
      <point x="185" y="271" type="curve" smooth="yes"/>
      <point x="101" y="271"/>
      <point x="36" y="231"/>
      <point x="36" y="165" type="curve" smooth="yes"/>
      <point x="36" y="119"/>
      <point x="34" y="80"/>
      <point x="46" y="69" type="curve" smooth="yes"/>
      <point x="95" y="22"/>
      <point x="33" y="-43"/>
    </contour>
  </outline>
</glyph>
<glyph name="e" format="2">
  <advance width="548"/>
  <unicode hex="0065"/>
  <outline>
    <contour>
      <point x="150" y="237" type="curve" smooth="yes"/>
      <point x="153" y="232"/>
      <point x="-169" y="261"/>
      <point x="317" y="261" type="curve" smooth="yes"/>
      <point x="323" y="261"/>
      <point x="293" y="204"/>
      <point x="292" y="208" type="curve" smooth="yes"/>
      <point x="281" y="250"/>
      <point x="225" y="273"/>
      <point x="162" y="273" type="curve" smooth="yes"/>
      <point x="77" y="273"/>
      <point x="9" y="233"/>
      <point x="9" y="166" type="curve" smooth="yes"/>
      <point x="9" y="95"/>
      <point x="84" y="60"/>
      <point x="171" y="60" type="curve" smooth="yes"/>
      <point x="216" y="60"/>
      <point x="264" y="71"/>
      <point x="341" y="109" type="curve" smooth="yes"/>
      <point x="401" y="140"/>
      <point x="442" y="59"/>
      <point x="381" y="29" type="curve" smooth="yes"/>
      <point x="288" y="-18"/>
      <point x="226" y="-30"/>
      <point x="171" y="-30" type="curve" smooth="yes"/>
      <point x="25" y="-30"/>
      <point x="-81" y="48"/>
      <point x="-81" y="166" type="curve" smooth="yes"/>
      <point x="-81" y="280"/>
      <point x="19" y="363"/>
      <point x="162" y="363" type="curve" smooth="yes"/>
      <point x="276" y="363"/>
      <point x="358" y="309"/>
      <point x="380" y="230" type="curve" smooth="yes"/>
      <point x="399" y="157"/>
      <point x="455" y="171"/>
      <point x="317" y="171" type="curve" smooth="yes"/>
      <point x="280" y="171"/>
      <point x="106" y="126"/>
      <point x="70" y="195" type="curve" smooth="yes"/>
      <point x="39" y="255"/>
      <point x="119" y="297"/>
    </contour>
  </outline>
</glyph>
<glyph name="g" format="2">
  <advance width="556"/>
  <unicode hex="0067"/>
  <outline>
    <contour>
      <point x="12" y="-37" type="curve" smooth="yes"/>
      <point x="110" y="-70"/>
      <point x="280" y="-58"/>
      <point x="280" y="23" type="curve" smooth="yes"/>
      <point x="280" y="89"/>
      <point x="280" y="142"/>
      <point x="280" y="186" type="curve" smooth="yes"/>
      <point x="280" y="239"/>
      <point x="216" y="271"/>
      <point x="144" y="271" type="curve" smooth="yes"/>
      <point x="72" y="271"/>
      <point x="9" y="238"/>
      <point x="9" y="185" type="curve" smooth="yes"/>
      <point x="9" y="141"/>
      <point x="135" y="136"/>
      <point x="209" y="147" type="curve" smooth="yes"/>
      <point x="283" y="157"/>
      <point x="402" y="213"/>
      <point x="392" y="249" type="curve" smooth="yes"/>
      <point x="380" y="292"/>
      <point x="379" y="344"/>
      <point x="403" y="412" type="curve" smooth="yes"/>
      <point x="425" y="476"/>
      <point x="510" y="446"/>
      <point x="487" y="382" type="curve" smooth="yes"/>
      <point x="471" y="336"/>
      <point x="470" y="302"/>
      <point x="478" y="273" type="curve" smooth="yes"/>
      <point x="503" y="188"/>
      <point x="398" y="83"/>
      <point x="221" y="57" type="curve" smooth="yes"/>
      <point x="46" y="33"/>
      <point x="-81" y="81"/>
      <point x="-81" y="185" type="curve" smooth="yes"/>
      <point x="-81" y="283"/>
      <point x="11" y="361"/>
      <point x="144" y="361" type="curve" smooth="yes"/>
      <point x="278" y="361"/>
      <point x="370" y="284"/>
      <point x="370" y="186" type="curve" smooth="yes"/>
      <point x="370" y="120"/>
      <point x="370" y="67"/>
      <point x="370" y="23" type="curve" smooth="yes"/>
      <point x="370" y="-123"/>
      <point x="161" y="-182"/>
      <point x="-16" y="-123" type="curve" smooth="yes"/>
      <point x="-80" y="-101"/>
      <point x="-52" y="-16"/>
    </contour>
  </outline>
</glyph>
<glyph name="h" format="2">
  <advance width="568"/>
  <unicode hex="0068"/>
  <outline>
    <contour>
      <point x="361" y="-2" type="curve" smooth="yes"/>
      <point x="310" y="16"/>
      <point x="301" y="61"/>
      <point x="301" y="115" type="curve" smooth="yes"/>
      <point x="301" y="148"/>
      <point x="301" y="176"/>
      <point x="301" y="198" type="curve" smooth="yes"/>
      <point x="301" y="237"/>
      <point x="195" y="265"/>
      <point x="170" y="278" type="curve" smooth="yes"/>
      <point x="152" y="288"/>
      <point x="156" y="283"/>
      <point x="156" y="258" type="curve" smooth="yes"/>
      <point x="156" y="210"/>
      <point x="156" y="196"/>
      <point x="156" y="168" type="curve" smooth="yes"/>
      <point x="156" y="17"/>
      <point x="-54" y="-66"/>
      <point x="-54" y="83" type="curve" smooth="yes"/>
      <point x="-54" y="143"/>
      <point x="-54" y="359"/>
      <point x="-54" y="375" type="curve" smooth="yes"/>
      <point x="-54" y="429"/>
      <point x="-52" y="468"/>
      <point x="-17" y="525" type="curve" smooth="yes"/>
      <point x="18" y="583"/>
      <point x="95" y="536"/>
      <point x="59" y="479" type="curve" smooth="yes"/>
      <point x="35" y="438"/>
      <point x="36" y="413"/>
      <point x="36" y="375" type="curve" smooth="yes"/>
      <point x="36" y="352"/>
      <point x="36" y="123"/>
      <point x="36" y="83" type="curve" smooth="yes"/>
      <point x="36" y="77"/>
      <point x="66" y="162"/>
      <point x="66" y="168" type="curve" smooth="yes"/>
      <point x="66" y="209"/>
      <point x="66" y="226"/>
      <point x="66" y="258" type="curve" smooth="yes"/>
      <point x="66" y="392"/>
      <point x="118" y="409"/>
      <point x="212" y="358" type="curve" smooth="yes"/>
      <point x="286" y="318"/>
      <point x="391" y="310"/>
      <point x="391" y="198" type="curve" smooth="yes"/>
      <point x="391" y="165"/>
      <point x="391" y="137"/>
      <point x="391" y="115" type="curve" smooth="yes"/>
      <point x="391" y="113"/>
      <point x="389" y="83"/>
      <point x="391" y="82" type="curve" smooth="yes"/>
      <point x="455" y="59"/>
      <point x="424" y="-25"/>
    </contour>
  </outline>
</glyph>
<glyph name="j" format="2">
  <advance width="245"/>
  <unicode hex="006A"/>
  <outline>
    <contour>
      <point x="78" y="316" type="curve" smooth="yes"/>
      <point x="61" y="278"/>
      <point x="54" y="234"/>
      <point x="54" y="187" type="curve" smooth="yes"/>
      <point x="54" y="129"/>
      <point x="54" y="46"/>
      <point x="54" y="-21" type="curve" smooth="yes"/>
      <point x="54" y="-128"/>
      <point x="9" y="-126"/>
      <point x="-97" y="-97" type="curve" smooth="yes"/>
      <point x="-162" y="-80"/>
      <point x="-139" y="7"/>
      <point x="-73" y="-11" type="curve" smooth="yes"/>
      <point x="-68" y="-12"/>
      <point x="-36" y="-26"/>
      <point x="-36" y="-21" type="curve" smooth="yes"/>
      <point x="-36" y="79"/>
      <point x="-36" y="148"/>
      <point x="-36" y="187" type="curve" smooth="yes"/>
      <point x="-36" y="248"/>
      <point x="-27" y="304"/>
      <point x="-4" y="354" type="curve" smooth="yes"/>
      <point x="24" y="415"/>
      <point x="106" y="378"/>
    </contour>
    <contour>
      <point x="-26" y="414" type="curve" smooth="yes"/>
      <point x="-38" y="429"/>
      <point x="-47" y="456"/>
      <point x="-32" y="491" type="curve" smooth="yes"/>
      <point x="-6" y="553"/>
      <point x="77" y="517"/>
      <point x="50" y="455" type="curve" smooth="yes"/>
      <point x="50" y="454"/>
      <point x="43" y="472"/>
      <point x="44" y="472" type="curve" smooth="yes"/>
      <point x="87" y="420"/>
      <point x="18" y="362"/>
    </contour>
  </outline>
</glyph>
<glyph name="k" format="2">
  <advance width="501"/>
  <unicode hex="006B"/>
  <outline>
    <contour>
      <point x="58" y="479" type="curve" smooth="yes"/>
      <point x="45" y="444"/>
      <point x="40" y="413"/>
      <point x="40" y="386" type="curve" smooth="yes"/>
      <point x="40" y="275"/>
      <point x="40" y="184"/>
      <point x="40" y="110" type="curve" smooth="yes"/>
      <point x="40" y="90"/>
      <point x="43" y="70"/>
      <point x="52" y="56" type="curve" smooth="yes"/>
      <point x="90" y="0"/>
      <point x="15" y="-50"/>
      <point x="-22" y="6" type="curve" smooth="yes"/>
      <point x="-41" y="34"/>
      <point x="-50" y="69"/>
      <point x="-50" y="110" type="curve" smooth="yes"/>
      <point x="-50" y="221"/>
      <point x="-50" y="312"/>
      <point x="-50" y="386" type="curve" smooth="yes"/>
      <point x="-50" y="421"/>
      <point x="-43" y="462"/>
      <point x="-28" y="509" type="curve" smooth="yes"/>
      <point x="-6" y="572"/>
      <point x="79" y="543"/>
    </contour>
    <contour>
      <point x="315" y="272" type="curve" smooth="yes"/>
      <point x="256" y="241"/>
      <point x="203" y="217"/>
      <point x="174" y="208" type="curve" smooth="yes"/>
      <point x="170" y="207"/>
      <point x="196" y="185"/>
      <point x="199" y="179" type="curve" smooth="yes"/>
      <point x="224" y="129"/>
      <point x="278" y="86"/>
      <point x="328" y="55" type="curve" smooth="yes"/>
      <point x="385" y="20"/>
      <point x="338" y="-57"/>
      <point x="280" y="-21" type="curve" smooth="yes"/>
      <point x="214" y="20"/>
      <point x="152" y="73"/>
      <point x="119" y="139" type="curve" smooth="yes"/>
      <point x="60" y="257"/>
      <point x="90" y="278"/>
      <point x="148" y="294" type="curve" smooth="yes"/>
      <point x="173" y="301"/>
      <point x="224" y="325"/>
      <point x="273" y="352" type="curve" smooth="yes"/>
      <point x="332" y="384"/>
      <point x="375" y="304"/>
    </contour>
  </outline>
</glyph>
<glyph name="l" format="2">
  <advance width="231"/>
  <unicode hex="006C"/>
  <outline>
    <contour>
      <point x="8" y="-2" type="curve" smooth="yes"/>
      <point x="-42" y="18"/>
      <point x="-50" y="62"/>
      <point x="-50" y="117" type="curve" smooth="yes"/>
      <point x="-50" y="229"/>
      <point x="-50" y="317"/>
      <point x="-50" y="392" type="curve" smooth="yes"/>
      <point x="-50" y="425"/>
      <point x="-49" y="463"/>
      <point x="-26" y="515" type="curve" smooth="yes"/>
      <point x="2" y="576"/>
      <point x="84" y="539"/>
      <point x="56" y="477" type="curve" smooth="yes"/>
      <point x="39" y="441"/>
      <point x="40" y="415"/>
      <point x="40" y="392" type="curve" smooth="yes"/>
      <point x="40" y="280"/>
      <point x="40" y="192"/>
      <point x="40" y="117" type="curve" smooth="yes"/>
      <point x="40" y="115"/>
      <point x="39" y="83"/>
      <point x="42" y="82" type="curve" smooth="yes"/>
      <point x="104" y="57"/>
      <point x="71" y="-27"/>
    </contour>
  </outline>
</glyph>
<glyph name="o" format="2">
  <advance width="577"/>
  <unicode hex="006F"/>
  <outline>
    <contour>
      <point x="140" y="-1" type="curve" smooth="yes"/>
      <point x="65" y="0"/>
      <point x="13" y="10"/>
      <point x="-27" y="41" type="curve" smooth="yes"/>
      <point x="-65" y="70"/>
      <point x="-81" y="117"/>
      <point x="-81" y="167" type="curve" smooth="yes"/>
      <point x="-81" y="277"/>
      <point x="20" y="363"/>
      <point x="168" y="363" type="curve" smooth="yes"/>
      <point x="317" y="363"/>
      <point x="418" y="277"/>
      <point x="418" y="167" type="curve" smooth="yes"/>
      <point x="418" y="120"/>
      <point x="397" y="77"/>
      <point x="370" y="46" type="curve" smooth="yes"/>
      <point x="340" y="12"/>
      <point x="312" y="2"/>
      <point x="263" y="-1" type="curve" smooth="yes"/>
      <point x="196" y="-5"/>
      <point x="191" y="85"/>
      <point x="259" y="89" type="curve" smooth="yes"/>
      <point x="281" y="90"/>
      <point x="289" y="90"/>
      <point x="302" y="106" type="curve" smooth="yes"/>
      <point x="315" y="121"/>
      <point x="328" y="144"/>
      <point x="328" y="167" type="curve" smooth="yes"/>
      <point x="328" y="232"/>
      <point x="256" y="273"/>
      <point x="168" y="273" type="curve" smooth="yes"/>
      <point x="81" y="273"/>
      <point x="9" y="232"/>
      <point x="9" y="167" type="curve" smooth="yes"/>
      <point x="9" y="147"/>
      <point x="13" y="123"/>
      <point x="29" y="111" type="curve" smooth="yes"/>
      <point x="52" y="93"/>
      <point x="97" y="90"/>
      <point x="142" y="89" type="curve" smooth="yes"/>
      <point x="209" y="88"/>
      <point x="208" y="-2"/>
    </contour>
  </outline>
</glyph>
<glyph name="p" format="2">
  <advance width="584"/>
  <unicode hex="0070"/>
  <outline>
    <contour>
      <point x="6" y="-121" type="curve" smooth="yes"/>
      <point x="-45" y="-103"/>
      <point x="-54" y="-59"/>
      <point x="-54" y="-5" type="curve" smooth="yes"/>
      <point x="-54" y="63"/>
      <point x="-54" y="119"/>
      <point x="-54" y="165" type="curve" smooth="yes"/>
      <point x="-54" y="277"/>
      <point x="42" y="361"/>
      <point x="185" y="361" type="curve" smooth="yes"/>
      <point x="327" y="361"/>
      <point x="426" y="274"/>
      <point x="426" y="164" type="curve" smooth="yes"/>
      <point x="426" y="41"/>
      <point x="340" y="-16"/>
      <point x="241" y="20" type="curve" smooth="yes"/>
      <point x="152" y="52"/>
      <point x="100" y="145"/>
      <point x="61" y="219" type="curve" smooth="yes"/>
      <point x="34" y="270"/>
      <point x="33" y="332"/>
      <point x="70" y="411" type="curve" smooth="yes"/>
      <point x="99" y="472"/>
      <point x="181" y="434"/>
      <point x="152" y="373" type="curve" smooth="yes"/>
      <point x="130" y="327"/>
      <point x="125" y="291"/>
      <point x="141" y="261" type="curve" smooth="yes"/>
      <point x="167" y="211"/>
      <point x="211" y="126"/>
      <point x="271" y="104" type="curve" smooth="yes"/>
      <point x="315" y="88"/>
      <point x="336" y="110"/>
      <point x="336" y="164" type="curve" smooth="yes"/>
      <point x="336" y="229"/>
      <point x="268" y="271"/>
      <point x="185" y="271" type="curve" smooth="yes"/>
      <point x="101" y="271"/>
      <point x="36" y="231"/>
      <point x="36" y="165" type="curve" smooth="yes"/>
      <point x="36" y="97"/>
      <point x="36" y="41"/>
      <point x="36" y="-5" type="curve" smooth="yes"/>
      <point x="36" y="-7"/>
      <point x="34" y="-36"/>
      <point x="36" y="-37" type="curve" smooth="yes"/>
      <point x="100" y="-60"/>
      <point x="69" y="-144"/>
    </contour>
  </outline>
</glyph>
<glyph name="w" format="2">
  <advance width="725"/>
  <unicode hex="0077"/>
  <outline>
    <contour>
      <point x="-10" y="335" type="curve" smooth="yes"/>
      <point x="5" y="305"/>
      <point x="19" y="275"/>
      <point x="34" y="245" type="curve" smooth="yes"/>
      <point x="52" y="209"/>
      <point x="68" y="173"/>
      <point x="88" y="133" type="curve" smooth="yes"/>
      <point x="97" y="116"/>
      <point x="101" y="108"/>
      <point x="108" y="94" type="curve" smooth="yes"/>
      <point x="124" y="63"/>
      <point x="201" y="148"/>
      <point x="215" y="178" type="curve" smooth="yes"/>
      <point x="222" y="192"/>
      <point x="225" y="199"/>
      <point x="232" y="214" type="curve" smooth="yes"/>
      <point x="248" y="250"/>
      <point x="263" y="285"/>
      <point x="277" y="320" type="curve" smooth="yes"/>
      <point x="280" y="327"/>
      <point x="281" y="341"/>
      <point x="282" y="346" type="curve" smooth="yes"/>
      <point x="282" y="351"/>
      <point x="317" y="288"/>
      <point x="319" y="282" type="curve" smooth="yes"/>
      <point x="322" y="271"/>
      <point x="332" y="255"/>
      <point x="337" y="245" type="curve" smooth="yes"/>
      <point x="355" y="206"/>
      <point x="369" y="171"/>
      <point x="383" y="138" type="curve" smooth="yes"/>
      <point x="396" y="109"/>
      <point x="388" y="99"/>
      <point x="392" y="85" type="curve" smooth="yes"/>
      <point x="396" y="70"/>
      <point x="489" y="162"/>
      <point x="497" y="176" type="curve" smooth="yes"/>
      <point x="504" y="192"/>
      <point x="508" y="199"/>
      <point x="518" y="219" type="curve" smooth="yes"/>
      <point x="519" y="222"/>
      <point x="535" y="243"/>
      <point x="533" y="244" type="curve" smooth="yes"/>
      <point x="506" y="269"/>
      <point x="509" y="294"/>
      <point x="544" y="369" type="curve" smooth="yes"/>
      <point x="573" y="430"/>
      <point x="654" y="392"/>
      <point x="626" y="331" type="curve" smooth="yes"/>
      <point x="625" y="329"/>
      <point x="593" y="311"/>
      <point x="595" y="310" type="curve" smooth="yes"/>
      <point x="628" y="278"/>
      <point x="630" y="244"/>
      <point x="598" y="179" type="curve" smooth="yes"/>
      <point x="588" y="159"/>
      <point x="586" y="154"/>
      <point x="577" y="136" type="curve" smooth="yes"/>
      <point x="517" y="17"/>
      <point x="340" y="-58"/>
      <point x="306" y="59" type="curve" smooth="yes"/>
      <point x="294" y="99"/>
      <point x="305" y="92"/>
      <point x="301" y="102" type="curve" smooth="yes"/>
      <point x="287" y="135"/>
      <point x="273" y="170"/>
      <point x="255" y="207" type="curve" smooth="yes"/>
      <point x="244" y="230"/>
      <point x="240" y="230"/>
      <point x="231" y="260" type="curve" smooth="yes"/>
      <point x="188" y="425"/>
      <point x="391" y="458"/>
      <point x="370" y="332" type="curve" smooth="yes"/>
      <point x="367" y="314"/>
      <point x="371" y="311"/>
      <point x="361" y="286" type="curve" smooth="yes"/>
      <point x="345" y="249"/>
      <point x="330" y="214"/>
      <point x="314" y="178" type="curve" smooth="yes"/>
      <point x="307" y="161"/>
      <point x="304" y="154"/>
      <point x="297" y="140" type="curve" smooth="yes"/>
      <point x="246" y="27"/>
      <point x="88" y="-64"/>
      <point x="28" y="54" type="curve" smooth="yes"/>
      <point x="21" y="67"/>
      <point x="17" y="74"/>
      <point x="8" y="93" type="curve" smooth="yes"/>
      <point x="-12" y="133"/>
      <point x="-30" y="171"/>
      <point x="-46" y="205" type="curve" smooth="yes"/>
      <point x="-61" y="235"/>
      <point x="-75" y="265"/>
      <point x="-90" y="295" type="curve" smooth="yes"/>
      <point x="-120" y="355"/>
      <point x="-40" y="395"/>
    </contour>
  </outline>
</glyph>
<glyph name="x" format="2">
  <advance width="499"/>
  <unicode hex="0078"/>
  <outline>
    <contour>
      <point x="32" y="348" type="curve" smooth="yes"/>
      <point x="40" y="330"/>
      <point x="53" y="309"/>
      <point x="71" y="300" type="curve" smooth="yes"/>
      <point x="120" y="272"/>
      <point x="209" y="193"/>
      <point x="280" y="110" type="curve" smooth="yes"/>
      <point x="293" y="95"/>
      <point x="310" y="83"/>
      <point x="331" y="76" type="curve" smooth="yes"/>
      <point x="394" y="54"/>
      <point x="365" y="-32"/>
      <point x="301" y="-10" type="curve" smooth="yes"/>
      <point x="264" y="3"/>
      <point x="235" y="25"/>
      <point x="212" y="52" type="curve" smooth="yes"/>
      <point x="151" y="122"/>
      <point x="68" y="198"/>
      <point x="29" y="220" type="curve" smooth="yes"/>
      <point x="-7" y="239"/>
      <point x="-32" y="273"/>
      <point x="-50" y="310" type="curve" smooth="yes"/>
      <point x="-78" y="371"/>
      <point x="3" y="409"/>
    </contour>
    <contour>
      <point x="320" y="281" type="curve" smooth="yes"/>
      <point x="287" y="253"/>
      <point x="254" y="225"/>
      <point x="223" y="199" type="curve" smooth="yes"/>
      <point x="129" y="121"/>
      <point x="60" y="57"/>
      <point x="39" y="33" type="curve" smooth="yes"/>
      <point x="26" y="20"/>
      <point x="8" y="2"/>
      <point x="-5" y="-12" type="curve" smooth="yes"/>
      <point x="-51" y="-61"/>
      <point x="-117" y="0"/>
      <point x="-71" y="50" type="curve" smooth="yes"/>
      <point x="-56" y="66"/>
      <point x="-38" y="82"/>
      <point x="-29" y="93" type="curve" smooth="yes"/>
      <point x="-6" y="119"/>
      <point x="63" y="183"/>
      <point x="165" y="267" type="curve" smooth="yes"/>
      <point x="198" y="295"/>
      <point x="231" y="323"/>
      <point x="262" y="349" type="curve" smooth="yes"/>
      <point x="314" y="393"/>
      <point x="372" y="324"/>
    </contour>
    <contour>
      <point x="121" y="433" type="curve" smooth="yes"/>
      <point x="149" y="408"/>
      <point x="172" y="387"/>
      <point x="190" y="370" type="curve" smooth="yes"/>
      <point x="205" y="358"/>
      <point x="217" y="345"/>
      <point x="233" y="331" type="curve" smooth="yes"/>
      <point x="293" y="277"/>
      <point x="291" y="232"/>
      <point x="232" y="179" type="curve" smooth="yes"/>
      <point x="216" y="164"/>
      <point x="200" y="149"/>
      <point x="184" y="135" type="curve" smooth="yes"/>
      <point x="163" y="117"/>
      <point x="136" y="92"/>
      <point x="112" y="71" type="curve" smooth="yes"/>
      <point x="63" y="25"/>
      <point x="2" y="92"/>
      <point x="52" y="137" type="curve" smooth="yes"/>
      <point x="76" y="160"/>
      <point x="103" y="185"/>
      <point x="124" y="203" type="curve" smooth="yes"/>
      <point x="140" y="217"/>
      <point x="156" y="232"/>
      <point x="172" y="245" type="curve" smooth="yes"/>
      <point x="184" y="256"/>
      <point x="184" y="253"/>
      <point x="171" y="265" type="curve" smooth="yes"/>
      <point x="159" y="277"/>
      <point x="143" y="292"/>
      <point x="130" y="304" type="curve" smooth="yes"/>
      <point x="102" y="329"/>
      <point x="79" y="350"/>
      <point x="61" y="367" type="curve" smooth="yes"/>
      <point x="11" y="412"/>
      <point x="71" y="479"/>
    </contour>
  </outline>
</glyph>
<glyph name="y" format="2">
  <advance width="488"/>
  <unicode hex="0079"/>
  <outline>
    <contour>
      <point x="125" y="11" type="curve" smooth="yes"/>
      <point x="139" y="33"/>
      <point x="154" y="56"/>
      <point x="168" y="78" type="curve"/>
      <point x="176" y="92"/>
      <point x="184" y="106"/>
      <point x="192" y="117" type="curve"/>
      <point x="193" y="118"/>
      <point x="84" y="117"/>
      <point x="76" y="120" type="curve" smooth="yes"/>
      <point x="0" y="142"/>
      <point x="-47" y="219"/>
      <point x="-94" y="290" type="curve" smooth="yes"/>
      <point x="-131" y="347"/>
      <point x="-55" y="396"/>
      <point x="-18" y="340" type="curve" smooth="yes"/>
      <point x="10" y="297"/>
      <point x="55" y="220"/>
      <point x="100" y="206" type="curve" smooth="yes"/>
      <point x="285" y="154"/>
      <point x="311" y="136"/>
      <point x="266" y="65" type="curve" smooth="yes"/>
      <point x="260" y="56"/>
      <point x="252" y="44"/>
      <point x="244" y="30" type="curve" smooth="yes"/>
      <point x="230" y="8"/>
      <point x="215" y="-15"/>
      <point x="201" y="-37" type="curve" smooth="yes"/>
      <point x="165" y="-94"/>
      <point x="89" y="-46"/>
    </contour>
    <contour>
      <point x="359" y="300" type="curve" smooth="yes"/>
      <point x="320" y="254"/>
      <point x="294" y="214"/>
      <point x="280" y="191" type="curve" smooth="yes"/>
      <point x="238" y="124"/>
      <point x="176" y="28"/>
      <point x="147" y="-18" type="curve" smooth="yes"/>
      <point x="139" y="-31"/>
      <point x="130" y="-44"/>
      <point x="122" y="-57" type="curve" smooth="yes"/>
      <point x="108" y="-79"/>
      <point x="95" y="-100"/>
      <point x="81" y="-122" type="curve" smooth="yes"/>
      <point x="45" y="-179"/>
      <point x="-31" y="-131"/>
      <point x="5" y="-74" type="curve" smooth="yes"/>
      <point x="19" y="-52"/>
      <point x="32" y="-31"/>
      <point x="46" y="-9" type="curve" smooth="yes"/>
      <point x="54" y="4"/>
      <point x="63" y="17"/>
      <point x="71" y="30" type="curve" smooth="yes"/>
      <point x="99" y="75"/>
      <point x="161" y="170"/>
      <point x="204" y="239" type="curve" smooth="yes"/>
      <point x="220" y="264"/>
      <point x="248" y="308"/>
      <point x="291" y="358" type="curve" smooth="yes"/>
      <point x="335" y="410"/>
      <point x="403" y="351"/>
    </contour>
  </outline>
</glyph>
<glyph name="z" format="2">
  <advance width="474"/>
  <unicode hex="007A"/>
  <outline>
    <contour>
      <point x="-11" y="360" type="curve" smooth="yes"/>
      <point x="18" y="354"/>
      <point x="62" y="354"/>
      <point x="108" y="354" type="curve" smooth="yes"/>
      <point x="149" y="354"/>
      <point x="177" y="354"/>
      <point x="214" y="354" type="curve" smooth="yes"/>
      <point x="238" y="354"/>
      <point x="564" y="459"/>
      <point x="390" y="315" type="curve" smooth="yes"/>
      <point x="361" y="291"/>
      <point x="340" y="275"/>
      <point x="314" y="254" type="curve" smooth="yes"/>
      <point x="285" y="229"/>
      <point x="250" y="200"/>
      <point x="218" y="174" type="curve" smooth="yes"/>
      <point x="193" y="153"/>
      <point x="177" y="139"/>
      <point x="151" y="118" type="curve" smooth="yes"/>
      <point x="147" y="114"/>
      <point x="24" y="65"/>
      <point x="30" y="65" type="curve" smooth="yes"/>
      <point x="76" y="65"/>
      <point x="98" y="65"/>
      <point x="124" y="65" type="curve" smooth="yes"/>
      <point x="178" y="65"/>
      <point x="220" y="65"/>
      <point x="272" y="72" type="curve" smooth="yes"/>
      <point x="339" y="80"/>
      <point x="351" y="-9"/>
      <point x="284" y="-18" type="curve" smooth="yes"/>
      <point x="228" y="-25"/>
      <point x="182" y="-25"/>
      <point x="124" y="-25" type="curve" smooth="yes"/>
      <point x="85" y="-25"/>
      <point x="61" y="-25"/>
      <point x="30" y="-25" type="curve" smooth="yes"/>
      <point x="-129" y="-25"/>
      <point x="-13" y="98"/>
      <point x="93" y="186" type="curve" smooth="yes"/>
      <point x="119" y="209"/>
      <point x="135" y="223"/>
      <point x="160" y="242" type="curve" smooth="yes"/>
      <point x="190" y="268"/>
      <point x="225" y="297"/>
      <point x="258" y="324" type="curve" smooth="yes"/>
      <point x="284" y="345"/>
      <point x="303" y="361"/>
      <point x="332" y="385" type="curve" smooth="yes"/>
      <point x="343" y="394"/>
      <point x="590" y="264"/>
      <point x="214" y="264" type="curve" smooth="yes"/>
      <point x="159" y="264"/>
      <point x="136" y="264"/>
      <point x="108" y="264" type="curve" smooth="yes"/>
      <point x="50" y="264"/>
      <point x="7" y="264"/>
      <point x="-29" y="272" type="curve" smooth="yes"/>
      <point x="-95" y="286"/>
      <point x="-77" y="374"/>
    </contour>
  </outline>
</glyph>
<glyph name="bar" format="2">
  <advance width="315"/>
  <unicode hex="007C"/>
  <outline>
    <contour>
      <point x="106" y="504" type="curve" smooth="yes"/>
      <point x="87" y="474"/>
      <point x="83" y="448"/>
      <point x="83" y="417" type="curve" smooth="yes"/>
      <point x="83" y="237"/>
      <point x="83" y="134"/>
      <point x="83" y="14" type="curve" smooth="yes"/>
      <point x="83" y="10"/>
      <point x="83" y="-21"/>
      <point x="85" y="-22" type="curve" smooth="yes"/>
      <point x="152" y="-33"/>
      <point x="137" y="-121"/>
      <point x="71" y="-110" type="curve" smooth="yes"/>
      <point x="22" y="-102"/>
      <point x="-7" y="-65"/>
      <point x="-7" y="14" type="curve" smooth="yes"/>
      <point x="-7" y="193"/>
      <point x="-7" y="296"/>
      <point x="-7" y="417" type="curve" smooth="yes"/>
      <point x="-7" y="464"/>
      <point x="1" y="508"/>
      <point x="30" y="552" type="curve" smooth="yes"/>
      <point x="67" y="609"/>
      <point x="142" y="560"/>
    </contour>
  </outline>
</glyph>
<glyph name="braceright" format="2">
  <advance width="466"/>
  <unicode hex="007D"/>
  <outline>
    <contour>
      <point x="-25" y="-42" type="curve" smooth="yes"/>
      <point x="19" y="-52"/>
      <point x="60" y="-54"/>
      <point x="91" y="-46" type="curve" smooth="yes"/>
      <point x="112" y="-42"/>
      <point x="130" y="-33"/>
      <point x="130" y="-16" type="curve" smooth="yes"/>
      <point x="130" y="21"/>
      <point x="72" y="82"/>
      <point x="72" y="146" type="curve" smooth="yes"/>
      <point x="72" y="199"/>
      <point x="107" y="251"/>
      <point x="220" y="251" type="curve" smooth="yes"/>
      <point x="225" y="251"/>
      <point x="345" y="246"/>
      <point x="340" y="246" type="curve" smooth="yes"/>
      <point x="255" y="246"/>
      <point x="198" y="250"/>
      <point x="159" y="262" type="curve" smooth="yes"/>
      <point x="66" y="288"/>
      <point x="130" y="404"/>
      <point x="130" y="429" type="curve" smooth="yes"/>
      <point x="130" y="446"/>
      <point x="108" y="456"/>
      <point x="86" y="460" type="curve" smooth="yes"/>
      <point x="56" y="466"/>
      <point x="16" y="463"/>
      <point x="-25" y="454" type="curve" smooth="yes"/>
      <point x="-91" y="439"/>
      <point x="-111" y="527"/>
      <point x="-45" y="542" type="curve" smooth="yes"/>
      <point x="12" y="555"/>
      <point x="62" y="556"/>
      <point x="102" y="548" type="curve" smooth="yes"/>
      <point x="177" y="535"/>
      <point x="220" y="488"/>
      <point x="220" y="429" type="curve" smooth="yes"/>
      <point x="220" y="64"/>
      <point x="178" y="350"/>
      <point x="185" y="348" type="curve" smooth="yes"/>
      <point x="216" y="338"/>
      <point x="274" y="336"/>
      <point x="340" y="336" type="curve" smooth="yes"/>
      <point x="488" y="336"/>
      <point x="366" y="161"/>
      <point x="220" y="161" type="curve" smooth="yes"/>
      <point x="195" y="161"/>
      <point x="162" y="158"/>
      <point x="162" y="146" type="curve" smooth="yes"/>
      <point x="162" y="111"/>
      <point x="220" y="52"/>
      <point x="220" y="-16" type="curve" smooth="yes"/>
      <point x="220" y="-74"/>
      <point x="180" y="-119"/>
      <point x="113" y="-134" type="curve" smooth="yes"/>
      <point x="70" y="-144"/>
      <point x="16" y="-144"/>
      <point x="-45" y="-130" type="curve" smooth="yes"/>
      <point x="-111" y="-115"/>
      <point x="-91" y="-27"/>
    </contour>
  </outline>
</glyph>
<glyph name="asciitilde" format="2">
  <advance width="639"/>
  <unicode hex="007E"/>
  <outline>
    <contour>
      <point x="577" y="347" type="curve" smooth="yes"/>
      <point x="577" y="255"/>
      <point x="524" y="183"/>
      <point x="428" y="183" type="curve" smooth="yes"/>
      <point x="317" y="183"/>
      <point x="275" y="300"/>
      <point x="210" y="300" type="curve" smooth="yes"/>
      <point x="167" y="300"/>
      <point x="153" y="268"/>
      <point x="153" y="226" type="curve" smooth="yes"/>
      <point x="153" y="159"/>
      <point x="63" y="159"/>
      <point x="63" y="226" type="curve" smooth="yes"/>
      <point x="63" y="318"/>
      <point x="115" y="390"/>
      <point x="210" y="390" type="curve" smooth="yes"/>
      <point x="321" y="390"/>
      <point x="363" y="273"/>
      <point x="428" y="273" type="curve" smooth="yes"/>
      <point x="472" y="273"/>
      <point x="487" y="305"/>
      <point x="487" y="347" type="curve" smooth="yes"/>
      <point x="487" y="415"/>
      <point x="577" y="415"/>
    </contour>
  </outline>
</glyph>
<glyph name="exclamdown" format="2">
  <advance width="261"/>
  <unicode hex="00A1"/>
  <outline>
    <contour>
      <point x="57" y="199" type="curve" smooth="yes"/>
      <point x="57" y="-52" type="line" smooth="yes"/>
      <point x="57" y="-120"/>
      <point x="-33" y="-119"/>
      <point x="-33" y="-52" type="curve" smooth="yes"/>
      <point x="-33" y="199" type="line" smooth="yes"/>
      <point x="-33" y="267"/>
      <point x="57" y="267"/>
    </contour>
    <contour>
      <point x="16" y="297" type="curve" smooth="yes"/>
      <point x="-72" y="305"/>
      <point x="-73" y="407"/>
      <point x="15" y="418" type="curve" smooth="yes"/>
      <point x="82" y="426"/>
      <point x="92" y="336"/>
      <point x="25" y="328" type="curve" smooth="yes"/>
      <point x="23" y="328"/>
      <point x="21" y="387"/>
      <point x="24" y="387" type="curve" smooth="yes"/>
      <point x="91" y="381"/>
      <point x="83" y="291"/>
    </contour>
  </outline>
</glyph>
<glyph name="sterling" format="2">
  <advance width="541"/>
  <unicode hex="00A3"/>
  <outline>
    <contour>
      <point x="102" y="150" type="curve" smooth="yes"/>
      <point x="144" y="150"/>
      <point x="181" y="160"/>
      <point x="181" y="187" type="curve" smooth="yes"/>
      <point x="181" y="238"/>
      <point x="109" y="333"/>
      <point x="109" y="425" type="curve" smooth="yes"/>
      <point x="109" y="546"/>
      <point x="248" y="611"/>
      <point x="453" y="550" type="curve" smooth="yes"/>
      <point x="518" y="531"/>
      <point x="492" y="445"/>
      <point x="427" y="464" type="curve" smooth="yes"/>
      <point x="317" y="497"/>
      <point x="199" y="490"/>
      <point x="199" y="425" type="curve" smooth="yes"/>
      <point x="199" y="361"/>
      <point x="271" y="261"/>
      <point x="271" y="187" type="curve" smooth="yes"/>
      <point x="271" y="115"/>
      <point x="213" y="60"/>
      <point x="102" y="60" type="curve" smooth="yes"/>
      <point x="35" y="60"/>
      <point x="35" y="150"/>
    </contour>
    <contour>
      <point x="90" y="347" type="curve" smooth="yes"/>
      <point x="416" y="347" type="line" smooth="yes"/>
      <point x="484" y="347"/>
      <point x="484" y="257"/>
      <point x="416" y="257" type="curve" smooth="yes"/>
      <point x="90" y="257" type="line" smooth="yes"/>
      <point x="23" y="257"/>
      <point x="23" y="347"/>
    </contour>
    <contour>
      <point x="80" y="150" type="curve" smooth="yes"/>
      <point x="456" y="150" type="line" smooth="yes"/>
      <point x="524" y="150"/>
      <point x="524" y="60"/>
      <point x="456" y="60" type="curve" smooth="yes"/>
      <point x="80" y="60" type="line" smooth="yes"/>
      <point x="13" y="60"/>
      <point x="13" y="150"/>
    </contour>
  </outline>
</glyph>
<glyph name="currency" format="2">
  <advance width="646"/>
  <unicode hex="00A4"/>
  <outline>
    <contour>
      <point x="134" y="81" type="curve" smooth="yes"/>
      <point x="48" y="102"/>
      <point x="-4" y="162"/>
      <point x="-4" y="235" type="curve" smooth="yes"/>
      <point x="-4" y="325"/>
      <point x="76" y="396"/>
      <point x="201" y="396" type="curve" smooth="yes"/>
      <point x="327" y="396"/>
      <point x="409" y="325"/>
      <point x="409" y="235" type="curve" smooth="yes"/>
      <point x="409" y="162"/>
      <point x="355" y="102"/>
      <point x="269" y="81" type="curve" smooth="yes"/>
      <point x="204" y="66"/>
      <point x="183" y="153"/>
      <point x="249" y="169" type="curve" smooth="yes"/>
      <point x="288" y="178"/>
      <point x="319" y="201"/>
      <point x="319" y="235" type="curve" smooth="yes"/>
      <point x="319" y="280"/>
      <point x="264" y="306"/>
      <point x="201" y="306" type="curve" smooth="yes"/>
      <point x="138" y="306"/>
      <point x="86" y="280"/>
      <point x="86" y="235" type="curve" smooth="yes"/>
      <point x="86" y="201"/>
      <point x="115" y="178"/>
      <point x="154" y="169" type="curve" smooth="yes"/>
      <point x="220" y="153"/>
      <point x="199" y="66"/>
    </contour>
    <contour>
      <point x="134" y="354" type="curve" smooth="yes"/>
      <point x="108" y="373"/>
      <point x="67" y="394"/>
      <point x="38" y="423" type="curve" smooth="yes"/>
      <point x="-10" y="471"/>
      <point x="54" y="535"/>
      <point x="102" y="487" type="curve" smooth="yes"/>
      <point x="123" y="465"/>
      <point x="153" y="452"/>
      <point x="188" y="426" type="curve" smooth="yes"/>
      <point x="242" y="386"/>
      <point x="189" y="314"/>
    </contour>
    <contour>
      <point x="543" y="418" type="curve" smooth="yes"/>
      <point x="513" y="397"/>
      <point x="467" y="365"/>
      <point x="453" y="354" type="curve" smooth="yes"/>
      <point x="398" y="314"/>
      <point x="345" y="386"/>
      <point x="399" y="426" type="curve" smooth="yes"/>
      <point x="415" y="437"/>
      <point x="461" y="471"/>
      <point x="491" y="492" type="curve" smooth="yes"/>
      <point x="546" y="531"/>
      <point x="598" y="457"/>
    </contour>
    <contour>
      <point x="43" y="175" type="curve" smooth="yes"/>
      <point x="74" y="197"/>
      <point x="90" y="209"/>
      <point x="135" y="241" type="curve" smooth="yes"/>
      <point x="190" y="280"/>
      <point x="242" y="206"/>
      <point x="187" y="167" type="curve" smooth="yes"/>
      <point x="142" y="135"/>
      <point x="126" y="125"/>
      <point x="97" y="103" type="curve" smooth="yes"/>
      <point x="42" y="63"/>
      <point x="-11" y="135"/>
    </contour>
    <contour>
      <point x="463" y="230" type="curve" smooth="yes"/>
      <point x="477" y="209"/>
      <point x="513" y="192"/>
      <point x="538" y="179" type="curve" smooth="yes"/>
      <point x="598" y="148"/>
      <point x="556" y="68"/>
      <point x="496" y="99" type="curve" smooth="yes"/>
      <point x="452" y="122"/>
      <point x="414" y="142"/>
      <point x="389" y="178" type="curve" smooth="yes"/>
      <point x="351" y="234"/>
      <point x="425" y="285"/>
    </contour>
  </outline>
</glyph>
<glyph name="plusminus" format="2">
  <advance width="540"/>
  <unicode hex="00B1"/>
  <outline>
    <contour>
      <point x="315" y="465" type="curve" smooth="yes"/>
      <point x="315" y="232" type="line" smooth="yes"/>
      <point x="315" y="165"/>
      <point x="225" y="165"/>
      <point x="225" y="232" type="curve" smooth="yes"/>
      <point x="225" y="465" type="line" smooth="yes"/>
      <point x="225" y="533"/>
      <point x="315" y="533"/>
    </contour>
    <contour>
      <point x="460" y="296" type="curve" smooth="yes"/>
      <point x="80" y="296" type="line" smooth="yes"/>
      <point x="12" y="296"/>
      <point x="13" y="386"/>
      <point x="80" y="386" type="curve" smooth="yes"/>
      <point x="460" y="386" type="line" smooth="yes"/>
      <point x="528" y="386"/>
      <point x="528" y="296"/>
    </contour>
    <contour>
      <point x="460" y="83" type="curve" smooth="yes"/>
      <point x="80" y="83" type="line" smooth="yes"/>
      <point x="12" y="83"/>
      <point x="13" y="173"/>
      <point x="80" y="173" type="curve" smooth="yes"/>
      <point x="460" y="173" type="line" smooth="yes"/>
      <point x="528" y="173"/>
      <point x="528" y="83"/>
    </contour>
  </outline>
</glyph>
<glyph name="periodcentered" format="2">
  <advance width="260"/>
  <unicode hex="00B7"/>
  <outline>
    <contour>
      <point x="16" y="151" type="curve" smooth="yes"/>
      <point x="-72" y="159"/>
      <point x="-73" y="261"/>
      <point x="15" y="272" type="curve" smooth="yes"/>
      <point x="82" y="280"/>
      <point x="92" y="190"/>
      <point x="25" y="182" type="curve" smooth="yes"/>
      <point x="23" y="182"/>
      <point x="21" y="241"/>
      <point x="24" y="241" type="curve" smooth="yes"/>
      <point x="91" y="235"/>
      <point x="83" y="145"/>
    </contour>
  </outline>
</glyph>
<glyph name="questiondown" format="2">
  <advance width="511"/>
  <unicode hex="00BF"/>
  <outline>
    <contour>
      <point x="299" y="379" type="curve" smooth="yes"/>
      <point x="210" y="387"/>
      <point x="210" y="492"/>
      <point x="299" y="500" type="curve" smooth="yes"/>
      <point x="366" y="506"/>
      <point x="374" y="416"/>
      <point x="307" y="410" type="curve" smooth="yes"/>
      <point x="304" y="410"/>
      <point x="304" y="469"/>
      <point x="307" y="469" type="curve" smooth="yes"/>
      <point x="374" y="463"/>
      <point x="366" y="373"/>
    </contour>
    <contour>
      <point x="446" y="8" type="curve" smooth="yes"/>
      <point x="218" y="-59"/>
      <point x="49" y="14"/>
      <point x="49" y="119" type="curve" smooth="yes"/>
      <point x="49" y="201"/>
      <point x="133" y="257"/>
      <point x="287" y="283" type="curve"/>
      <point x="250" y="239" type="line"/>
      <point x="250" y="295" type="line" smooth="yes"/>
      <point x="250" y="363"/>
      <point x="340" y="363"/>
      <point x="340" y="295" type="curve" smooth="yes"/>
      <point x="340" y="239" type="line" smooth="yes"/>
      <point x="340" y="217"/>
      <point x="324" y="198"/>
      <point x="303" y="195" type="curve" smooth="yes"/>
      <point x="237" y="183"/>
      <point x="139" y="154"/>
      <point x="139" y="119" type="curve" smooth="yes"/>
      <point x="139" y="69"/>
      <point x="313" y="62"/>
      <point x="420" y="94" type="curve" smooth="yes"/>
      <point x="485" y="113"/>
      <point x="510" y="27"/>
    </contour>
  </outline>
</glyph>
<glyph name="Oslash" format="2">
  <advance width="732"/>
  <unicode hex="00D8"/>
  <outline>
    <contour>
      <point x="600" y="550" type="curve" smooth="yes"/>
      <point x="501" y="419"/>
      <point x="252" y="167"/>
      <point x="170" y="59" type="curve" smooth="yes"/>
      <point x="160" y="45"/>
      <point x="151" y="31"/>
      <point x="131" y="-1" type="curve" smooth="yes"/>
      <point x="128" y="-6"/>
      <point x="190" y="71"/>
      <point x="186" y="73" type="curve" smooth="yes"/>
      <point x="170" y="84"/>
      <point x="156" y="38"/>
      <point x="29" y="74" type="curve" smooth="yes"/>
      <point x="-43" y="94"/>
      <point x="-75" y="153"/>
      <point x="-75" y="232" type="curve" smooth="yes"/>
      <point x="-75" y="379"/>
      <point x="53" y="492"/>
      <point x="244" y="492" type="curve" smooth="yes"/>
      <point x="436" y="492"/>
      <point x="567" y="382"/>
      <point x="567" y="232" type="curve" smooth="yes"/>
      <point x="567" y="150"/>
      <point x="528" y="80"/>
      <point x="461" y="32" type="curve" smooth="yes"/>
      <point x="402" y="-9"/>
      <point x="330" y="-20"/>
      <point x="265" y="-7" type="curve" smooth="yes"/>
      <point x="199" y="7"/>
      <point x="217" y="95"/>
      <point x="283" y="81" type="curve" smooth="yes"/>
      <point x="324" y="72"/>
      <point x="372" y="79"/>
      <point x="409" y="106" type="curve" smooth="yes"/>
      <point x="452" y="136"/>
      <point x="477" y="180"/>
      <point x="477" y="232" type="curve" smooth="yes"/>
      <point x="477" y="336"/>
      <point x="378" y="402"/>
      <point x="244" y="402" type="curve" smooth="yes"/>
      <point x="111" y="402"/>
      <point x="15" y="334"/>
      <point x="15" y="232" type="curve" smooth="yes"/>
      <point x="15" y="196"/>
      <point x="21" y="169"/>
      <point x="53" y="160" type="curve" smooth="yes"/>
      <point x="111" y="144"/>
      <point x="201" y="172"/>
      <point x="236" y="149" type="curve" smooth="yes"/>
      <point x="362" y="66"/>
      <point x="-87" y="-183"/>
      <point x="55" y="47" type="curve" smooth="yes"/>
      <point x="77" y="83"/>
      <point x="86" y="97"/>
      <point x="98" y="113" type="curve" smooth="yes"/>
      <point x="181" y="222"/>
      <point x="430" y="474"/>
      <point x="528" y="604" type="curve" smooth="yes"/>
      <point x="569" y="658"/>
      <point x="641" y="604"/>
    </contour>
  </outline>
</glyph>
<glyph name="germandbls" format="2">
  <advance width="551"/>
  <unicode hex="00DF"/>
  <outline>
    <contour>
      <point x="201" y="83" type="curve" smooth="yes"/>
      <point x="238" y="38"/>
      <point x="266" y="98"/>
      <point x="309" y="167" type="curve" smooth="yes"/>
      <point x="337" y="212"/>
      <point x="360" y="272"/>
      <point x="341" y="290" type="curve" smooth="yes"/>
      <point x="331" y="300"/>
      <point x="316" y="303"/>
      <point x="287" y="299" type="curve" smooth="yes"/>
      <point x="281" y="299"/>
      <point x="173" y="324"/>
      <point x="175" y="324" type="curve" smooth="yes"/>
      <point x="183" y="323"/>
      <point x="209" y="334"/>
      <point x="219" y="340" type="curve" smooth="yes"/>
      <point x="232" y="347"/>
      <point x="249" y="361"/>
      <point x="249" y="374" type="curve" smooth="yes"/>
      <point x="249" y="414"/>
      <point x="200" y="436"/>
      <point x="146" y="436" type="curve" smooth="yes"/>
      <point x="139" y="436"/>
      <point x="20" y="410"/>
      <point x="23" y="407" type="curve" smooth="yes"/>
      <point x="133" y="311"/>
      <point x="106" y="191"/>
      <point x="36" y="3" type="curve" smooth="yes"/>
      <point x="13" y="-60"/>
      <point x="-72" y="-29"/>
      <point x="-48" y="35" type="curve" smooth="yes"/>
      <point x="1" y="166"/>
      <point x="41" y="272"/>
      <point x="-35" y="339" type="curve" smooth="yes"/>
      <point x="-118" y="410"/>
      <point x="-9" y="526"/>
      <point x="146" y="526" type="curve" smooth="yes"/>
      <point x="262" y="526"/>
      <point x="339" y="459"/>
      <point x="339" y="374" type="curve" smooth="yes"/>
      <point x="339" y="329"/>
      <point x="311" y="290"/>
      <point x="265" y="262" type="curve" smooth="yes"/>
      <point x="227" y="240"/>
      <point x="188" y="231"/>
      <point x="167" y="234" type="curve"/>
      <point x="100" y="240"/>
      <point x="95" y="367"/>
      <point x="275" y="389" type="curve" smooth="yes"/>
      <point x="343" y="398"/>
      <point x="381" y="377"/>
      <point x="405" y="354" type="curve" smooth="yes"/>
      <point x="450" y="309"/>
      <point x="453" y="229"/>
      <point x="385" y="119" type="curve" smooth="yes"/>
      <point x="291" y="-35"/>
      <point x="214" y="-75"/>
      <point x="131" y="25" type="curve" smooth="yes"/>
      <point x="88" y="77"/>
      <point x="158" y="135"/>
    </contour>
  </outline>
</glyph>
<glyph name="ae" format="2">
  <advance width="938"/>
  <unicode hex="00E6"/>
  <outline>
    <contour>
      <point x="280" y="52" type="curve" smooth="yes"/>
      <point x="137" y="52"/>
      <point x="39" y="139"/>
      <point x="39" y="249" type="curve" smooth="yes"/>
      <point x="39" y="361"/>
      <point x="137" y="446"/>
      <point x="279" y="446" type="curve" smooth="yes"/>
      <point x="420" y="446"/>
      <point x="519" y="361"/>
      <point x="519" y="249" type="curve" smooth="yes"/>
      <point x="519" y="139"/>
      <point x="422" y="52"/>
    </contour>
    <contour>
      <point x="429" y="102" type="curve" smooth="yes"/>
      <point x="429" y="397" type="line" smooth="yes"/>
      <point x="429" y="465"/>
      <point x="519" y="465"/>
      <point x="519" y="397" type="curve" smooth="yes"/>
      <point x="519" y="102" type="line" smooth="yes"/>
      <point x="519" y="35"/>
      <point x="429" y="35"/>
    </contour>
    <contour>
      <point x="280" y="142" type="curve" smooth="yes"/>
      <point x="364" y="142"/>
      <point x="429" y="184"/>
      <point x="429" y="249" type="curve" smooth="yes"/>
      <point x="429" y="315"/>
      <point x="362" y="356"/>
      <point x="279" y="356" type="curve" smooth="yes"/>
      <point x="195" y="356"/>
      <point x="129" y="315"/>
      <point x="129" y="249" type="curve" smooth="yes"/>
      <point x="129" y="184"/>
      <point x="196" y="142"/>
    </contour>
    <contour>
      <point x="498" y="294" type="curve" smooth="yes"/>
      <point x="853" y="294" type="line"/>
      <point x="808" y="251" type="line"/>
      <point x="811" y="318"/>
      <point x="754" y="356"/>
      <point x="672" y="356" type="curve" smooth="yes"/>
      <point x="587" y="356"/>
      <point x="519" y="316"/>
      <point x="519" y="249" type="curve" smooth="yes"/>
      <point x="519" y="143"/>
      <point x="681" y="114"/>
      <point x="824" y="172" type="curve" smooth="yes"/>
      <point x="887" y="197"/>
      <point x="920" y="113"/>
      <point x="858" y="88" type="curve" smooth="yes"/>
      <point x="635" y="-1"/>
      <point x="429" y="84"/>
      <point x="429" y="249" type="curve" smooth="yes"/>
      <point x="429" y="363"/>
      <point x="529" y="446"/>
      <point x="672" y="446" type="curve" smooth="yes"/>
      <point x="813" y="446"/>
      <point x="903" y="362"/>
      <point x="898" y="247" type="curve" smooth="yes"/>
      <point x="897" y="223"/>
      <point x="877" y="204"/>
      <point x="853" y="204" type="curve" smooth="yes"/>
      <point x="498" y="204" type="line" smooth="yes"/>
      <point x="431" y="204"/>
      <point x="431" y="294"/>
    </contour>
  </outline>
</glyph>
<glyph name="divide" format="2">
  <advance width="540"/>
  <unicode hex="00F7"/>
  <outline>
    <contour>
      <point x="-21" y="250" type="curve" smooth="yes"/>
      <point x="47" y="217"/>
      <point x="174" y="221"/>
      <point x="331" y="253" type="curve" smooth="yes"/>
      <point x="397" y="267"/>
      <point x="415" y="179"/>
      <point x="349" y="165" type="curve" smooth="yes"/>
      <point x="157" y="125"/>
      <point x="23" y="129"/>
      <point x="-59" y="168" type="curve" smooth="yes"/>
      <point x="-120" y="198"/>
      <point x="-81" y="279"/>
    </contour>
    <contour>
      <point x="152" y="271" type="curve" smooth="yes"/>
      <point x="64" y="282"/>
      <point x="65" y="384"/>
      <point x="153" y="392" type="curve" smooth="yes"/>
      <point x="220" y="398"/>
      <point x="228" y="308"/>
      <point x="161" y="302" type="curve" smooth="yes"/>
      <point x="158" y="302"/>
      <point x="160" y="361"/>
      <point x="162" y="361" type="curve" smooth="yes"/>
      <point x="229" y="353"/>
      <point x="219" y="263"/>
    </contour>
    <contour>
      <point x="152" y="26" type="curve" smooth="yes"/>
      <point x="65" y="37"/>
      <point x="65" y="137"/>
      <point x="152" y="148" type="curve" smooth="yes"/>
      <point x="219" y="156"/>
      <point x="229" y="66"/>
      <point x="162" y="58" type="curve" smooth="yes"/>
      <point x="160" y="58"/>
      <point x="160" y="116"/>
      <point x="162" y="116" type="curve" smooth="yes"/>
      <point x="229" y="108"/>
      <point x="219" y="18"/>
    </contour>
  </outline>
</glyph>
<glyph name="dotlessi" format="2">
  <advance width="231"/>
  <unicode hex="0131"/>
  <outline>
    <contour>
      <point x="-20" y="5" type="curve" smooth="yes"/>
      <point x="-41" y="32"/>
      <point x="-50" y="66"/>
      <point x="-50" y="108" type="curve" smooth="yes"/>
      <point x="-50" y="156"/>
      <point x="-50" y="194"/>
      <point x="-50" y="226" type="curve" smooth="yes"/>
      <point x="-50" y="261"/>
      <point x="-45" y="298"/>
      <point x="-27" y="345" type="curve" smooth="yes"/>
      <point x="-2" y="408"/>
      <point x="81" y="376"/>
      <point x="57" y="313" type="curve" smooth="yes"/>
      <point x="43" y="278"/>
      <point x="40" y="251"/>
      <point x="40" y="226" type="curve" smooth="yes"/>
      <point x="40" y="178"/>
      <point x="40" y="140"/>
      <point x="40" y="108" type="curve" smooth="yes"/>
      <point x="40" y="91"/>
      <point x="42" y="72"/>
      <point x="50" y="61" type="curve" smooth="yes"/>
      <point x="92" y="8"/>
      <point x="22" y="-48"/>
    </contour>
  </outline>
</glyph>
<glyph name="OE" format="2">
  <advance width="933"/>
  <unicode hex="0152"/>
  <outline>
    <contour>
      <point x="738" y="218" type="curve" smooth="yes"/>
      <point x="669" y="193"/>
      <point x="629" y="193"/>
      <point x="592" y="193" type="curve" smooth="yes"/>
      <point x="552" y="193"/>
      <point x="520" y="193"/>
      <point x="493" y="193" type="curve" smooth="yes"/>
      <point x="394" y="193"/>
      <point x="370" y="217"/>
      <point x="370" y="286" type="curve" smooth="yes"/>
      <point x="370" y="304"/>
      <point x="370" y="317"/>
      <point x="370" y="327" type="curve" smooth="yes"/>
      <point x="370" y="481"/>
      <point x="580" y="549"/>
      <point x="580" y="412" type="curve" smooth="yes"/>
      <point x="580" y="335"/>
      <point x="580" y="195"/>
      <point x="580" y="164" type="curve" smooth="yes"/>
      <point x="580" y="152"/>
      <point x="602" y="153"/>
      <point x="619" y="153" type="curve" smooth="yes"/>
      <point x="684" y="153"/>
      <point x="710" y="153"/>
      <point x="748" y="153" type="curve" smooth="yes"/>
      <point x="930" y="153"/>
      <point x="810" y="-22"/>
      <point x="628" y="-22" type="curve" smooth="yes"/>
      <point x="470" y="-22"/>
      <point x="343" y="-22"/>
      <point x="238" y="-22" type="curve" smooth="yes"/>
      <point x="48" y="-22"/>
      <point x="-75" y="88"/>
      <point x="-75" y="231" type="curve" smooth="yes"/>
      <point x="-75" y="374"/>
      <point x="46" y="485"/>
      <point x="237" y="485" type="curve" smooth="yes"/>
      <point x="380" y="485"/>
      <point x="496" y="485"/>
      <point x="592" y="485" type="curve" smooth="yes"/>
      <point x="630" y="485"/>
      <point x="665" y="485"/>
      <point x="730" y="504" type="curve" smooth="yes"/>
      <point x="795" y="523"/>
      <point x="821" y="437"/>
      <point x="756" y="418" type="curve" smooth="yes"/>
      <point x="681" y="395"/>
      <point x="636" y="395"/>
      <point x="592" y="395" type="curve" smooth="yes"/>
      <point x="448" y="395"/>
      <point x="333" y="395"/>
      <point x="237" y="395" type="curve" smooth="yes"/>
      <point x="105" y="395"/>
      <point x="15" y="330"/>
      <point x="15" y="231" type="curve" smooth="yes"/>
      <point x="15" y="132"/>
      <point x="107" y="68"/>
      <point x="238" y="68" type="curve" smooth="yes"/>
      <point x="395" y="68"/>
      <point x="522" y="68"/>
      <point x="628" y="68" type="curve" smooth="yes"/>
      <point x="636" y="68"/>
      <point x="756" y="63"/>
      <point x="748" y="63" type="curve" smooth="yes"/>
      <point x="692" y="63"/>
      <point x="662" y="63"/>
      <point x="619" y="63" type="curve" smooth="yes"/>
      <point x="528" y="63"/>
      <point x="490" y="100"/>
      <point x="490" y="164" type="curve" smooth="yes"/>
      <point x="490" y="210"/>
      <point x="490" y="360"/>
      <point x="490" y="412" type="curve" smooth="yes"/>
      <point x="490" y="418"/>
      <point x="460" y="333"/>
      <point x="460" y="327" type="curve" smooth="yes"/>
      <point x="460" y="312"/>
      <point x="460" y="298"/>
      <point x="460" y="286" type="curve" smooth="yes"/>
      <point x="460" y="282"/>
      <point x="487" y="283"/>
      <point x="493" y="283" type="curve" smooth="yes"/>
      <point x="533" y="283"/>
      <point x="565" y="283"/>
      <point x="592" y="283" type="curve" smooth="yes"/>
      <point x="623" y="283"/>
      <point x="651" y="283"/>
      <point x="708" y="302" type="curve" smooth="yes"/>
      <point x="772" y="325"/>
      <point x="802" y="240"/>
    </contour>
  </outline>
</glyph>
<glyph name="circumflex" format="2">
  <advance width="562"/>
  <unicode hex="02C6"/>
  <outline>
    <contour>
      <point x="37" y="471" type="curve" smooth="yes"/>
      <point x="53" y="480"/>
      <point x="68" y="489"/>
      <point x="93" y="504" type="curve" smooth="yes"/>
      <point x="150" y="539"/>
      <point x="174" y="536"/>
      <point x="228" y="505" type="curve" smooth="yes"/>
      <point x="251" y="491"/>
      <point x="261" y="484"/>
      <point x="310" y="476" type="curve" smooth="yes"/>
      <point x="377" y="466"/>
      <point x="363" y="377"/>
      <point x="296" y="388" type="curve" smooth="yes"/>
      <point x="233" y="398"/>
      <point x="213" y="409"/>
      <point x="182" y="427" type="curve" smooth="yes"/>
      <point x="160" y="440"/>
      <point x="164" y="442"/>
      <point x="141" y="428" type="curve" smooth="yes"/>
      <point x="114" y="411"/>
      <point x="97" y="402"/>
      <point x="81" y="393" type="curve" smooth="yes"/>
      <point x="22" y="360"/>
      <point x="-22" y="438"/>
    </contour>
  </outline>
</glyph>
<glyph name="emdash" format="2">
  <advance width="805"/>
  <unicode hex="2014"/>
  <outline>
    <contour>
      <point x="625" y="189" type="curve" smooth="yes"/>
      <point x="547" y="170"/>
      <point x="486" y="164"/>
      <point x="418" y="164" type="curve" smooth="yes"/>
      <point x="317" y="164"/>
      <point x="221" y="164"/>
      <point x="153" y="164" type="curve" smooth="yes"/>
      <point x="62" y="164"/>
      <point x="16" y="175"/>
      <point x="-11" y="200" type="curve" smooth="yes"/>
      <point x="-61" y="245"/>
      <point x="-1" y="312"/>
      <point x="49" y="266" type="curve" smooth="yes"/>
      <point x="60" y="257"/>
      <point x="118" y="254"/>
      <point x="153" y="254" type="curve" smooth="yes"/>
      <point x="254" y="254"/>
      <point x="350" y="254"/>
      <point x="418" y="254" type="curve" smooth="yes"/>
      <point x="480" y="254"/>
      <point x="533" y="260"/>
      <point x="603" y="277" type="curve" smooth="yes"/>
      <point x="669" y="293"/>
      <point x="690" y="205"/>
    </contour>
  </outline>
</glyph>
<glyph name="quoteleft" format="2">
  <advance width="274"/>
  <unicode hex="2018"/>
  <outline>
    <contour>
      <point x="74" y="418" type="curve" smooth="yes"/>
      <point x="58" y="400"/>
      <point x="33" y="357"/>
      <point x="50" y="347" type="curve" smooth="yes"/>
      <point x="106" y="310"/>
      <point x="57" y="234"/>
      <point x="0" y="271" type="curve" smooth="yes"/>
      <point x="-65" y="314"/>
      <point x="-58" y="400"/>
      <point x="4" y="476" type="curve" smooth="yes"/>
      <point x="47" y="528"/>
      <point x="117" y="471"/>
    </contour>
  </outline>
</glyph>
<glyph name="quotesinglbase" format="2">
  <advance width="274"/>
  <unicode hex="201A"/>
  <outline>
    <contour>
      <point x="80" y="22" type="curve" smooth="yes"/>
      <point x="95" y="39"/>
      <point x="120" y="82"/>
      <point x="105" y="92" type="curve" smooth="yes"/>
      <point x="48" y="128"/>
      <point x="96" y="204"/>
      <point x="153" y="168" type="curve" smooth="yes"/>
      <point x="218" y="127"/>
      <point x="212" y="41"/>
      <point x="150" y="-36" type="curve" smooth="yes"/>
      <point x="107" y="-88"/>
      <point x="37" y="-31"/>
    </contour>
  </outline>
</glyph>
<glyph name="guilsinglright" format="2">
  <advance width="397"/>
  <unicode hex="203A"/>
  <outline>
    <contour>
      <point x="-11" y="96" type="curve" smooth="yes"/>
      <point x="5" y="104"/>
      <point x="28" y="118"/>
      <point x="108" y="171" type="curve" smooth="yes"/>
      <point x="122" y="180"/>
      <point x="168" y="207"/>
      <point x="158" y="213" type="curve" smooth="yes"/>
      <point x="109" y="245"/>
      <point x="13" y="240"/>
      <point x="-44" y="275" type="curve" smooth="yes"/>
      <point x="-101" y="310"/>
      <point x="-54" y="387"/>
      <point x="4" y="351" type="curve" smooth="yes"/>
      <point x="43" y="327"/>
      <point x="136" y="334"/>
      <point x="206" y="289" type="curve" smooth="yes"/>
      <point x="298" y="231"/>
      <point x="287" y="182"/>
      <point x="158" y="97" type="curve" smooth="yes"/>
      <point x="71" y="38"/>
      <point x="49" y="26"/>
      <point x="31" y="16" type="curve" smooth="yes"/>
      <point x="-29" y="-15"/>
      <point x="-71" y="64"/>
    </contour>
  </outline>
</glyph>
<glyph name="A" format="2">
  <advance width="651"/>
  <outline>
    <contour>
      <point x="55.38219170343628" y="62.302262009114585" type="curve" smooth="yes"/>
      <point x="56.91776237052101" y="63.1703548693059"/>
      <point x="57.10902030855447" y="63.109660020925396"/>
      <point x="60.17939814875269" y="67.45012852377997" type="curve" smooth="yes"/>
      <point x="64.66158060989603" y="73.78640790344866"/>
      <point x="74.7547675859313" y="93.41620693197444"/>
      <point x="81.22409161784435" y="105.14708784218121" type="curve" smooth="yes"/>
      <point x="100.77053480267165" y="140.59082138964533"/>
      <point x="142.31529935315672" y="171.30656582404836"/>
      <point x="212.01456451159387" y="171.30656582404836" type="curve" smooth="yes"/>
      <point x="341.01456254681153" y="171.30656582404836" type="line" smooth="yes"/>
      <point x="344.71014011501126" y="171.30656582404836"/>
      <point x="364.005650580275" y="172.35763927816063"/>
      <point x="364.0053061904273" y="174.33084776695677" type="curve" smooth="yes"/>
      <point x="364.00495249274576" y="176.3573862149095"/>
      <point x="344.6916281028629" y="177.37258300203047"/>
      <point x="340.9960505346632" y="177.37258300203047" type="curve" smooth="yes"/>
      <point x="232.99605217959726" y="177.37258300203047" type="line" smooth="yes"/>
      <point x="116.81079587368525" y="177.37258300203047"/>
      <point x="105.58832067744923" y="202.93037386973106"/>
      <point x="148.4197339677882" y="287.4507406996842" type="curve" smooth="yes"/>
      <point x="169.78100463029313" y="329.60350414249297"/>
      <point x="201.41172563327035" y="425.9662503257837"/>
      <point x="232.2331351149737" y="481.99025725518" type="curve" smooth="yes"/>
      <point x="301.3767511580747" y="607.672453152866"/>
      <point x="367.54001004760767" y="512.297658863475"/>
      <point x="429.6381195581817" y="390.01971747622224" type="curve" smooth="yes"/>
      <point x="594.4542218465053" y="69.9506245685246" type="line" smooth="yes"/>
      <point x="595.6440626051517" y="67.60799750304197"/>
      <point x="595.150822622477" y="61.42493327785822"/>
      <point x="595.5276896784912" y="61.26494340038828" type="curve" smooth="yes"/>
      <point x="664.5642818099743" y="31.95711258896095"/>
      <point x="625.4871740614046" y="-60.09167691968315"/>
      <point x="556.4505819299216" y="-30.783846108255823" type="curve" smooth="yes"/>
      <point x="548.2484134388263" y="-27.301812030356768"/>
      <point x="528.387007252144" y="-20.833601323917573"/>
      <point x="505.548980063606" y="24.17008303039714" type="curve" smooth="yes"/>
      <point x="340.47689993149305" y="344.7397338777116" type="line" smooth="yes"/>
      <point x="337.687320474624" y="350.23271967084685"/>
      <point x="322.9553851832196" y="439.4344422452736"/>
      <point x="319.84930655364974" y="433.7885300825099" type="curve" smooth="yes"/>
      <point x="293.0187045454198" y="385.01860495234075"/>
      <point x="262.1585680073376" y="290.6703347645002"/>
      <point x="237.62000918780433" y="242.2477441101508" type="curve" smooth="yes"/>
      <point x="235.72937921130435" y="238.51691370139721"/>
      <point x="227.8674955543401" y="277.37258300203047"/>
      <point x="232.99605217959726" y="277.37258300203047" type="curve" smooth="yes"/>
      <point x="340.9960505346632" y="277.37258300203047" type="line" smooth="yes"/>
      <point x="426.3847024630718" y="277.37258300203047"/>
      <point x="463.9971322591954" y="221.1727508124689"/>
      <point x="464.0053046673403" y="174.3483010591221" type="curve" smooth="yes"/>
      <point x="464.0132900147586" y="128.59563032372225"/>
      <point x="426.7037051868498" y="71.30656582404836"/>
      <point x="341.01456254681153" y="71.30656582404836" type="curve" smooth="yes"/>
      <point x="212.01456451159387" y="71.30656582404836" type="line" smooth="yes"/>
      <point x="192.39373300482913" y="71.30656582404836"/>
      <point x="174.2934316396664" y="66.8335300893039"/>
      <point x="168.79097092628217" y="56.85587075064907" type="curve" smooth="yes"/>
      <point x="155.54173664422112" y="32.8309202693347"/>
      <point x="150.9979375739074" y="22.67677395446246"/>
      <point x="141.81838724845056" y="9.700016326664606" type="curve" smooth="yes"/>
      <point x="125.70192894586688" y="-13.083166486893406"/>
      <point x="112.65509382667408" y="-20.19346475356982"/>
      <point x="104.59486087985736" y="-24.75009690511665" type="curve" smooth="yes"/>
      <point x="39.305591694183946" y="-61.659598787432465"/>
      <point x="-9.907077482237142" y="25.39276012679877"/>
    </contour>
  </outline>
</glyph>
<glyph name="N" format="2">
  <advance width="698"/>
  <outline>
    <contour>
      <point x="184.98885873652563" y="16.71584868635913" type="curve" smooth="yes"/>
      <point x="184.98911935586992" y="16.50252884973253"/>
      <point x="85.00379294392886" y="59.58562195971853"/>
      <point x="85.00432349045118" y="62.62542963164766" type="curve" smooth="yes"/>
      <point x="85.05554005739495" y="356.0747438240649" type="line" smooth="yes"/>
      <point x="85.0782136429413" y="485.9848203070942"/>
      <point x="132.841875904879" y="625.9852379612353"/>
      <point x="250.02046333922618" y="497.1950759306461" type="curve" smooth="yes"/>
      <point x="526.0095292512416" y="193.09278823133616" type="line" smooth="yes"/>
      <point x="802.5200430993974" y="-109.88698092087749"/>
      <point x="512.9997462979982" y="36.437398587039176"/>
      <point x="513.0030828374952" y="55.55436181978223" type="curve" smooth="yes"/>
      <point x="513.054299404439" y="349.00367601219943" type="line" smooth="yes"/>
      <point x="513.0626672755387" y="396.94804600714525"/>
      <point x="513.0641928129179" y="412.9490377619107"/>
      <point x="513.0629376322531" y="440.9165869256292" type="curve" smooth="yes"/>
      <point x="513.0595716401451" y="515.9165868500966"/>
      <point x="613.059571539435" y="515.9210748395737"/>
      <point x="613.062937531543" y="440.9210749151065" type="curve" smooth="yes"/>
      <point x="613.0640484348572" y="416.1682692630659"/>
      <point x="613.0617039034468" y="391.41960383781765"/>
      <point x="613.0542978813519" y="348.9862227200339" type="curve" smooth="yes"/>
      <point x="613.0030813144081" y="55.536908527616674" type="line" smooth="yes"/>
      <point x="612.9646555887721" y="-164.62628295866082"/>
      <point x="476.4941437874497" y="99.00362833411407"/>
      <point x="451.9588726500481" y="125.88787578490769" type="curve" smooth="yes"/>
      <point x="176.05408250582138" y="429.89741990602863" type="line" smooth="yes"/>
      <point x="170.4740765792141" y="436.03036520904345"/>
      <point x="185.05661824301993" y="362.2435657940708"/>
      <point x="185.05553853430789" y="356.05729053189935" type="curve" smooth="yes"/>
      <point x="185.00432196736412" y="62.60797633948219" type="line" smooth="yes"/>
      <point x="184.97115407522438" y="-127.43004812173112"/>
      <point x="85.0052263673567" y="3.257674013943028"/>
      <point x="84.98893336770915" y="16.593675730519486" type="curve" smooth="yes"/>
      <point x="84.8973036508295" y="91.59361975713182"/>
      <point x="184.89722901964598" y="91.71579271297148"/>
    </contour>
  </outline>
</glyph>
<glyph name="acute.cap" format="2">
  <advance width="408"/>
  <outline>
    <contour>
      <point x="162" y="587" type="curve" smooth="yes"/>
      <point x="71" y="512" type="line" smooth="yes"/>
      <point x="19" y="469"/>
      <point x="-39" y="539"/>
      <point x="13" y="582" type="curve" smooth="yes"/>
      <point x="104" y="657" type="line" smooth="yes"/>
      <point x="156" y="700"/>
      <point x="214" y="630"/>
    </contour>
  </outline>
</glyph>
<glyph name="macron.cap" format="2">
  <advance width="490"/>
  <outline>
    <contour>
      <point x="250" y="533" type="curve" smooth="yes"/>
      <point x="0" y="533" type="line" smooth="yes"/>
      <point x="-68" y="533"/>
      <point x="-67" y="623"/>
      <point x="0" y="623" type="curve" smooth="yes"/>
      <point x="250" y="623" type="line" smooth="yes"/>
      <point x="318" y="623"/>
      <point x="318" y="533"/>
    </contour>
  </outline>
</glyph>
<glyph name="s" format="2">
  <advance width="513"/>
  <outline>
    <contour>
      <point x="392.50436036403033" y="273.1312317544378" type="curve" smooth="yes"/>
      <point x="352.8457443098036" y="268.77281584884776"/>
      <point x="316.42405560328797" y="269.2366036622713"/>
      <point x="276.7183213111111" y="267.9101293950065" type="curve" smooth="yes"/>
      <point x="259.3315263665324" y="267.3292778758158"/>
      <point x="164.0379108440268" y="255.06430400435832"/>
      <point x="164.03640836608065" y="246.45573944798454" type="curve" smooth="yes"/>
      <point x="164.026936083395" y="192.1835571479912"/>
      <point x="455.0333493339141" y="228.95417064594125"/>
      <point x="455.0050569266594" y="66.85061702660143" type="curve" smooth="yes"/>
      <point x="454.99307720019704" y="-1.788159923513032"/>
      <point x="379.04344224676555" y="-64.13441731543826"/>
      <point x="248.55694481929515" y="-55.147379911547404" type="curve" smooth="yes"/>
      <point x="165.34157734229058" y="-49.41606184539995"/>
      <point x="109.02655777319754" y="-14.07117419563123"/>
      <point x="71.0717601355133" y="27.481608461707495" type="curve" smooth="yes"/>
      <point x="20.49043869328679" y="82.85786620054496"/>
      <point x="94.32544901173677" y="150.29962812351363"/>
      <point x="144.90677045396328" y="94.92337038467615" type="curve" smooth="yes"/>
      <point x="168.94340642949066" y="68.60814351825783"/>
      <point x="202.7280078363999" y="48.24590688300031"/>
      <point x="255.42799888123534" y="44.61628389486006" type="curve" smooth="yes"/>
      <point x="283.28977378986247" y="42.69735114565511"/>
      <point x="355.00250051119536" y="52.21216192142072"/>
      <point x="355.0050584497464" y="66.86807031876695" type="curve" smooth="yes"/>
      <point x="355.0147250355814" y="122.25352766499736"/>
      <point x="64.00868620099536" y="87.62815945283299"/>
      <point x="64.03640988916771" y="246.47319274015004" type="curve" smooth="yes"/>
      <point x="64.04841106226701" y="315.2348498686388"/>
      <point x="134.50088672369486" y="363.2147706308804"/>
      <point x="273.3794215494899" y="367.8543725928107" type="curve" smooth="yes"/>
      <point x="307.68571089703175" y="369.0004642301041"/>
      <point x="347.31471870776556" y="368.76703511060356"/>
      <point x="381.58029726293745" y="372.532765169991" type="curve" smooth="yes"/>
      <point x="456.13144732460233" y="380.7258124958107"/>
      <point x="467.0555104256952" y="281.3242790802575"/>
    </contour>
  </outline>
</glyph>
<glyph name="t.alt" format="2">
  <advance width="336"/>
  <outline>
    <contour>
      <point x="204" y="296" type="curve" smooth="yes"/>
      <point x="166" y="296"/>
      <point x="145" y="310"/>
      <point x="131" y="327" type="curve"/>
      <point x="132" y="327"/>
      <point x="73" y="313"/>
      <point x="68" y="312" type="curve" smooth="yes"/>
      <point x="35" y="301"/>
      <point x="7" y="296"/>
      <point x="-18" y="296" type="curve" smooth="yes"/>
      <point x="-85" y="296"/>
      <point x="-85" y="386"/>
      <point x="-18" y="386" type="curve" smooth="yes"/>
      <point x="-1" y="386"/>
      <point x="20" y="391"/>
      <point x="44" y="398" type="curve" smooth="yes"/>
      <point x="140" y="426"/>
      <point x="179" y="409"/>
      <point x="203" y="383" type="curve"/>
      <point x="203" y="382"/>
      <point x="202" y="386"/>
      <point x="204" y="386" type="curve" smooth="yes"/>
      <point x="272" y="386"/>
      <point x="272" y="296"/>
    </contour>
    <contour>
      <point x="216" y="-16" type="curve" smooth="yes"/>
      <point x="101" y="-55"/>
      <point x="-2" y="-8"/>
      <point x="-2" y="87" type="curve" smooth="yes"/>
      <point x="-2" y="203"/>
      <point x="-2" y="247"/>
      <point x="-2" y="316" type="curve" smooth="yes"/>
      <point x="-2" y="357"/>
      <point x="2" y="389"/>
      <point x="13" y="426" type="curve" smooth="yes"/>
      <point x="33" y="491"/>
      <point x="119" y="465"/>
      <point x="99" y="400" type="curve" smooth="yes"/>
      <point x="90" y="371"/>
      <point x="88" y="347"/>
      <point x="88" y="316" type="curve" smooth="yes"/>
      <point x="88" y="212"/>
      <point x="88" y="165"/>
      <point x="88" y="87" type="curve" smooth="yes"/>
      <point x="88" y="54"/>
      <point x="148" y="56"/>
      <point x="188" y="70" type="curve" smooth="yes"/>
      <point x="252" y="91"/>
      <point x="280" y="6"/>
    </contour>
  </outline>
</glyph>
